<?xml version="1.0" encoding="utf-8"?>
<!-- Generator: Adobe Illustrator 17.0.0, SVG Export Plug-In . SVG Version: 6.00 Build 0)  -->
<!DOCTYPE svg PUBLIC "-//W3C//DTD SVG 1.1//EN" "http://www.w3.org/Graphics/SVG/1.1/DTD/svg11.dtd">
<svg version="1.1" xmlns="http://www.w3.org/2000/svg" xmlns:xlink="http://www.w3.org/1999/xlink" x="0px" y="0px" width="74px"
	 height="58.667px" viewBox="0 0 74 58.667" enable-background="new 0 0 74 58.667" xml:space="preserve">
<g id="Layer_1">
	<g>
		<g>
			
				<rect x="6.417" y="6" fill="#FFD300" stroke="#FFD300" stroke-width="3" stroke-linecap="round" stroke-linejoin="round" stroke-miterlimit="10" width="61.167" height="16"/>
			
				<rect x="6.417" y="22" fill="#233F89" stroke="#233F89" stroke-width="3" stroke-linecap="round" stroke-linejoin="round" stroke-miterlimit="10" width="61.167" height="16"/>
			
				<rect x="6.417" y="37.333" fill="#DB2C38" stroke="#DB2C38" stroke-width="3" stroke-linecap="round" stroke-linejoin="round" stroke-miterlimit="10" width="61.167" height="16"/>
		</g>
		<g>
			
				<polygon fill="#FFFFFF" stroke="#FFFFFF" stroke-width="0.5" stroke-linecap="round" stroke-linejoin="round" stroke-miterlimit="10" points="
				24.551,30.228 24.96,31.057 25.875,31.19 25.213,31.835 25.369,32.747 24.551,32.316 23.732,32.747 23.888,31.835 23.226,31.19 
				24.141,31.057 			"/>
			
				<polygon fill="#FFFFFF" stroke="#FFFFFF" stroke-width="0.5" stroke-linecap="round" stroke-linejoin="round" stroke-miterlimit="10" points="
				27.488,26.788 27.897,27.617 28.812,27.75 28.15,28.395 28.307,29.307 27.488,28.877 26.67,29.307 26.826,28.395 26.164,27.75 
				27.079,27.617 			"/>
			
				<polygon fill="#FFFFFF" stroke="#FFFFFF" stroke-width="0.5" stroke-linecap="round" stroke-linejoin="round" stroke-miterlimit="10" points="
				30.988,24.725 31.397,25.554 32.312,25.687 31.65,26.333 31.807,27.244 30.988,26.814 30.17,27.244 30.326,26.333 29.664,25.687 
				30.579,25.554 			"/>
			
				<polygon fill="#FFFFFF" stroke="#FFFFFF" stroke-width="0.5" stroke-linecap="round" stroke-linejoin="round" stroke-miterlimit="10" points="
				35.051,23.788 35.46,24.617 36.375,24.75 35.713,25.395 35.869,26.307 35.051,25.877 34.232,26.307 34.388,25.395 33.726,24.75 
				34.641,24.617 			"/>
			
				<polygon fill="#FFFFFF" stroke="#FFFFFF" stroke-width="0.5" stroke-linecap="round" stroke-linejoin="round" stroke-miterlimit="10" points="
				39.238,23.788 39.647,24.617 40.562,24.75 39.9,25.395 40.057,26.307 39.238,25.877 38.42,26.307 38.576,25.395 37.914,24.75 
				38.829,24.617 			"/>
			
				<polygon fill="#FFFFFF" stroke="#FFFFFF" stroke-width="0.5" stroke-linecap="round" stroke-linejoin="round" stroke-miterlimit="10" points="
				43.238,25.047 43.647,25.877 44.562,26.01 43.9,26.655 44.057,27.566 43.238,27.136 42.42,27.566 42.576,26.655 41.914,26.01 
				42.829,25.877 			"/>
			
				<polygon fill="#FFFFFF" stroke="#FFFFFF" stroke-width="0.5" stroke-linecap="round" stroke-linejoin="round" stroke-miterlimit="10" points="
				46.801,27.714 47.21,28.543 48.125,28.676 47.463,29.322 47.619,30.233 46.801,29.803 45.982,30.233 46.138,29.322 
				45.476,28.676 46.391,28.543 			"/>
			
				<polygon fill="#FFFFFF" stroke="#FFFFFF" stroke-width="0.5" stroke-linecap="round" stroke-linejoin="round" stroke-miterlimit="10" points="
				49.449,31.026 49.859,31.856 50.774,31.989 50.112,32.634 50.268,33.546 49.449,33.115 48.631,33.546 48.787,32.634 
				48.125,31.989 49.04,31.856 			"/>
		</g>
	</g>
</g>
<g id="Layer_2" display="none">
</g>
<g id="Layer_3">
</g>
<g id="Layer_5" display="none">
</g>
<g id="Layer_6">
</g>
<g id="Layer_8" display="none">
</g>
<g id="Layer_7">
</g>
<g id="Layer_4">
</g>
<g id="Layer_9">
</g>
<g id="Layer_10">
</g>
<g id="Layer_11">
</g>
</svg>
