<?xml version="1.0" encoding="utf-8"?>
<!-- Generator: Adobe Illustrator 17.0.0, SVG Export Plug-In . SVG Version: 6.00 Build 0)  -->
<!DOCTYPE svg PUBLIC "-//W3C//DTD SVG 1.1//EN" "http://www.w3.org/Graphics/SVG/1.1/DTD/svg11.dtd">
<svg version="1.1" id="Layer_1" xmlns="http://www.w3.org/2000/svg" xmlns:xlink="http://www.w3.org/1999/xlink" x="0px" y="0px"
	 width="68.917px" height="64px" viewBox="0 -24 68.917 64" enable-background="new 0 -24 68.917 64" xml:space="preserve">
<g>
	<path opacity="0.7" fill="#F52125" d="M58.619,5.084c0.011-0.02,0.02-0.04,0.03-0.06c0.013-0.027,0.024-0.055,0.034-0.083
		c0.008-0.022,0.014-0.045,0.02-0.067c0.007-0.028,0.013-0.057,0.017-0.086c0.003-0.023,0.006-0.045,0.008-0.068
		c0.002-0.03,0.001-0.059,0-0.089c-0.001-0.023-0.002-0.045-0.004-0.068c-0.004-0.029-0.01-0.057-0.016-0.085
		c-0.005-0.024-0.011-0.048-0.018-0.072c-0.002-0.007-0.003-0.015-0.006-0.022c-0.007-0.02-0.018-0.038-0.026-0.057
		c-0.01-0.023-0.019-0.046-0.031-0.068c-0.016-0.029-0.035-0.055-0.053-0.081c-0.012-0.017-0.022-0.034-0.035-0.05
		c-0.033-0.04-0.069-0.077-0.108-0.109c-0.002-0.002-0.003-0.003-0.005-0.005c0,0,0,0,0,0c-0.041-0.034-0.085-0.063-0.132-0.088
		c-0.021-0.011-0.042-0.019-0.063-0.029c-0.027-0.012-0.053-0.024-0.081-0.033c-0.025-0.008-0.05-0.013-0.075-0.019
		c-0.026-0.006-0.052-0.012-0.078-0.015c-0.026-0.003-0.052-0.005-0.078-0.006c-0.026-0.001-0.052-0.002-0.079,0
		c-0.027,0.002-0.053,0.005-0.08,0.009c-0.015,0.002-0.03,0.002-0.045,0.005L3.749,15.006c-0.382,0.079-0.661,0.409-0.675,0.799
		c-0.014,0.39,0.24,0.739,0.615,0.845l11.651,3.303l1.799,11.574c0.004,0.028,0.012,0.054,0.019,0.081
		c0.003,0.012,0.005,0.023,0.008,0.035c0.015,0.049,0.035,0.096,0.058,0.141c0.002,0.004,0.003,0.007,0.005,0.011
		c0.008,0.015,0.017,0.027,0.026,0.041c0.01,0.016,0.019,0.033,0.03,0.048c0.014,0.02,0.03,0.039,0.045,0.057
		c0.01,0.012,0.019,0.024,0.029,0.035c0.02,0.021,0.041,0.04,0.063,0.059c0.008,0.007,0.016,0.015,0.024,0.022
		c0.029,0.023,0.059,0.044,0.09,0.063c0.003,0.002,0.005,0.004,0.008,0.005c0.035,0.021,0.071,0.038,0.108,0.054
		c0.008,0.003,0.017,0.006,0.026,0.009c0.029,0.011,0.059,0.021,0.089,0.029c0.003,0.001,0.006,0.002,0.009,0.003
		c0.017,0.004,0.035,0.006,0.052,0.01c0.014,0.003,0.028,0.006,0.043,0.008c0.029,0.004,0.058,0.005,0.087,0.006
		c0.006,0,0.013,0.001,0.019,0.001c0.058,0,0.116-0.007,0.173-0.019c0.008-0.002,0.015-0.002,0.023-0.004
		c0.017-0.004,0.034-0.01,0.05-0.015c0.016-0.005,0.032-0.009,0.047-0.015c0.013-0.005,0.026-0.011,0.039-0.017
		c0.019-0.008,0.037-0.016,0.056-0.025c0.003-0.001,0.006-0.002,0.008-0.004l10.851-5.766l5.992,5.635
		c0.158,0.148,0.365,0.23,0.58,0.23c0.018,0,0.035-0.001,0.053-0.002c0.234-0.015,0.451-0.125,0.6-0.306L58.538,5.205
		c0.009-0.011,0.015-0.023,0.023-0.035C58.582,5.143,58.602,5.114,58.619,5.084z M24.867,20.73
		c-0.013,0.007-0.024,0.017-0.036,0.024c-0.034,0.019-0.066,0.041-0.097,0.065c-0.019,0.015-0.038,0.031-0.056,0.048"/>
	<path fill="#221F1F" d="M64.119-0.067c0.011-0.02,0.021-0.04,0.03-0.06c0.013-0.027,0.024-0.055,0.034-0.083
		c0.008-0.022,0.014-0.045,0.02-0.067c0.007-0.028,0.013-0.057,0.017-0.086c0.003-0.023,0.006-0.045,0.008-0.068
		c0.002-0.03,0.001-0.059,0-0.089c-0.001-0.023-0.002-0.045-0.004-0.068c-0.004-0.029-0.01-0.057-0.016-0.085
		c-0.005-0.024-0.011-0.048-0.018-0.072c-0.002-0.007-0.003-0.015-0.006-0.022c-0.007-0.02-0.018-0.038-0.026-0.057
		c-0.01-0.023-0.019-0.046-0.031-0.068c-0.016-0.029-0.035-0.055-0.053-0.081c-0.012-0.017-0.022-0.034-0.035-0.05
		c-0.033-0.04-0.069-0.077-0.108-0.109c-0.002-0.002-0.003-0.003-0.005-0.005c0,0,0,0,0,0c-0.041-0.034-0.085-0.063-0.132-0.088
		c-0.021-0.011-0.042-0.019-0.063-0.029c-0.027-0.012-0.053-0.024-0.081-0.033c-0.025-0.008-0.05-0.013-0.075-0.019
		c-0.026-0.006-0.052-0.012-0.078-0.015c-0.026-0.003-0.052-0.005-0.078-0.006c-0.026-0.001-0.052-0.002-0.079,0
		c-0.027,0.002-0.053,0.005-0.08,0.009c-0.015,0.002-0.03,0.002-0.045,0.005L9.25,9.855c-0.382,0.079-0.661,0.409-0.675,0.799
		c-0.014,0.39,0.24,0.739,0.615,0.845l11.651,3.303l1.799,11.574c0.004,0.028,0.012,0.054,0.019,0.081
		c0.003,0.012,0.005,0.023,0.008,0.035c0.015,0.049,0.035,0.096,0.058,0.141c0.002,0.004,0.003,0.007,0.005,0.011
		c0.008,0.015,0.017,0.027,0.026,0.041c0.01,0.016,0.019,0.033,0.03,0.048c0.014,0.02,0.03,0.039,0.045,0.057
		c0.01,0.012,0.019,0.024,0.029,0.035c0.02,0.021,0.041,0.04,0.063,0.059c0.008,0.007,0.016,0.015,0.024,0.022
		c0.029,0.023,0.059,0.044,0.09,0.063c0.003,0.002,0.005,0.004,0.008,0.005c0.035,0.021,0.071,0.038,0.108,0.054
		c0.008,0.003,0.017,0.006,0.026,0.009c0.029,0.011,0.059,0.021,0.089,0.029c0.003,0.001,0.006,0.002,0.009,0.003
		c0.017,0.004,0.035,0.006,0.052,0.01c0.014,0.003,0.028,0.006,0.043,0.008c0.029,0.004,0.058,0.005,0.087,0.006
		c0.006,0,0.013,0.001,0.019,0.001c0.058,0,0.116-0.007,0.173-0.019c0.008-0.002,0.015-0.002,0.023-0.004
		c0.017-0.004,0.034-0.01,0.05-0.015c0.016-0.005,0.032-0.009,0.047-0.015c0.013-0.005,0.026-0.011,0.039-0.017
		c0.019-0.008,0.037-0.016,0.056-0.025c0.003-0.001,0.006-0.002,0.008-0.004l10.851-5.766l5.992,5.635
		c0.158,0.148,0.365,0.23,0.58,0.23c0.018,0,0.035-0.001,0.053-0.002c0.234-0.015,0.451-0.125,0.6-0.306L64.038,0.055
		c0.009-0.011,0.015-0.023,0.023-0.035C64.082-0.008,64.102-0.036,64.119-0.067z M21.826,13.321l-8.845-2.508L57.49,1.6
		L30.368,15.579c-0.013,0.007-0.024,0.017-0.036,0.024c-0.034,0.019-0.066,0.041-0.097,0.065c-0.019,0.015-0.038,0.031-0.056,0.048
		c-0.013,0.012-0.028,0.022-0.04,0.035c-0.014,0.015-0.024,0.032-0.037,0.048c-0.009,0.011-0.02,0.02-0.029,0.031l-6.072,8.27
		l-1.569-10.096C22.381,13.679,22.144,13.411,21.826,13.321z M26.355,23.758l4.518-6.153l2.549,2.398L26.355,23.758z M41.22,25.01
		l-9.011-8.474L60.1,2.161L41.22,25.01z"/>
</g>
</svg>
