<?xml version="1.0" encoding="utf-8"?>
<!-- Generator: Adobe Illustrator 17.0.0, SVG Export Plug-In . SVG Version: 6.00 Build 0)  -->
<!DOCTYPE svg PUBLIC "-//W3C//DTD SVG 1.1//EN" "http://www.w3.org/Graphics/SVG/1.1/DTD/svg11.dtd">
<svg version="1.1" id="Layer_1" xmlns="http://www.w3.org/2000/svg" xmlns:xlink="http://www.w3.org/1999/xlink" x="0px" y="0px"
	 width="63.417px" height="66.473px" viewBox="11 -37.75 63.417 66.473" enable-background="new 11 -37.75 63.417 66.473"
	 xml:space="preserve">
<g>
	<g>
		<path fill="none" stroke="#1D1F20" stroke-linecap="round" stroke-linejoin="round" stroke-miterlimit="10" d="M-40.5-0.637
			c0-4.346-3.116-7.869-6.961-7.869s-6.961,3.523-6.961,7.869c0,3.25,1.744,6.039,4.231,7.24v5.071h5.46V6.603
			C-42.244,5.402-40.5,2.613-40.5-0.637z"/>
		<g>
			
				<line fill="none" stroke="#1D1F20" stroke-linecap="round" stroke-linejoin="round" stroke-miterlimit="10" x1="-50.567" y1="13.754" x2="-44.355" y2="13.754"/>
			
				<line fill="none" stroke="#1D1F20" stroke-linecap="round" stroke-linejoin="round" stroke-miterlimit="10" x1="-50.567" y1="15.543" x2="-44.355" y2="15.543"/>
			
				<line fill="none" stroke="#1D1F20" stroke-linecap="round" stroke-linejoin="round" stroke-miterlimit="10" x1="-49.438" y1="17.331" x2="-45.484" y2="17.331"/>
		</g>
		<g>
			
				<line fill="none" stroke="#1D1F20" stroke-linecap="round" stroke-linejoin="round" stroke-miterlimit="10" x1="-48.261" y1="-3.567" x2="-48.261" y2="9.424"/>
			
				<line fill="none" stroke="#1D1F20" stroke-linecap="round" stroke-linejoin="round" stroke-miterlimit="10" x1="-46.661" y1="-3.567" x2="-46.661" y2="9.424"/>
		</g>
	</g>
	<g>
		<g>
			<path fill="none" stroke="#1D1F20" stroke-linecap="round" stroke-linejoin="round" stroke-miterlimit="10" d="M-47.059-12.341
				c-0.319,0-0.578-0.259-0.578-0.578v-5.78c0-0.319,0.259-0.578,0.578-0.578s0.578,0.259,0.578,0.578v5.78
				C-46.481-12.6-46.74-12.341-47.059-12.341z"/>
		</g>
		<g>
			<path fill="none" stroke="#1D1F20" stroke-linecap="round" stroke-linejoin="round" stroke-miterlimit="10" d="M-55.756-8.488
				c-0.148,0-0.296-0.056-0.409-0.169l-4.912-4.913c-0.226-0.226-0.226-0.592,0-0.817c0.226-0.225,0.592-0.226,0.817,0l4.913,4.913
				c0.226,0.226,0.226,0.592,0,0.817C-55.46-8.544-55.608-8.488-55.756-8.488z"/>
		</g>
		<g>
			<path fill="none" stroke="#1D1F20" stroke-linecap="round" stroke-linejoin="round" stroke-miterlimit="10" d="M-61.622-0.027
				h-2.89c-0.319,0-0.578-0.259-0.578-0.578c0-0.319,0.259-0.578,0.578-0.578h2.89c0.319,0,0.578,0.259,0.578,0.578
				C-61.044-0.285-61.303-0.027-61.622-0.027z"/>
		</g>
		<g>
			<path fill="none" stroke="#1D1F20" stroke-linecap="round" stroke-linejoin="round" stroke-miterlimit="10" d="M-60.225,12.571
				c-0.148,0-0.296-0.056-0.409-0.169c-0.226-0.226-0.226-0.592,0-0.817l2.89-2.89c0.226-0.226,0.592-0.226,0.817,0
				s0.226,0.592,0,0.817l-2.89,2.89C-59.93,12.515-60.078,12.571-60.225,12.571z"/>
		</g>
		<g>
			<path fill="none" stroke="#1D1F20" stroke-linecap="round" stroke-linejoin="round" stroke-miterlimit="10" d="M-35.265,13.139
				c-0.148,0-0.296-0.056-0.409-0.169l-2.89-2.89c-0.226-0.226-0.226-0.592,0-0.817s0.592-0.226,0.817,0l2.89,2.89
				c0.226,0.226,0.226,0.592,0,0.817C-34.969,13.083-35.117,13.139-35.265,13.139z"/>
		</g>
		<g>
			<path fill="none" stroke="#1D1F20" stroke-linecap="round" stroke-linejoin="round" stroke-miterlimit="10" d="M-30.41,0.777
				h-2.89c-0.319,0-0.578-0.259-0.578-0.578s0.259-0.578,0.578-0.578h2.89c0.319,0,0.578,0.259,0.578,0.578
				S-30.091,0.777-30.41,0.777z"/>
		</g>
		<g>
			<path fill="none" stroke="#1D1F20" stroke-linecap="round" stroke-linejoin="round" stroke-miterlimit="10" d="M-38.598-7.92
				c-0.148,0-0.296-0.056-0.409-0.169c-0.226-0.226-0.226-0.592,0-0.817l4.913-4.913c0.226-0.226,0.592-0.226,0.817,0
				s0.226,0.592,0,0.817l-4.913,4.913C-38.303-7.976-38.45-7.92-38.598-7.92z"/>
		</g>
	</g>
</g>
<g>
	<g>
		<g>
			<path fill="#1D1F20" d="M-80.268,71.129h-10.934c-0.553,0-1.001-0.448-1.001-1.001v-9.541c-5.166-2.783-8.47-8.639-8.47-15.108
				c0-9.239,6.701-16.756,14.938-16.756s14.938,7.517,14.938,16.756c0,6.469-3.304,12.325-8.47,15.108v9.541
				C-79.267,70.681-79.715,71.129-80.268,71.129z M-90.201,69.127h8.931v-9.152c0-0.384,0.219-0.734,0.565-0.901
				c4.802-2.319,7.905-7.655,7.905-13.594c0-8.136-5.803-14.754-12.936-14.754s-12.936,6.618-12.936,14.754
				c0,5.939,3.103,11.275,7.905,13.594c0.346,0.167,0.565,0.517,0.565,0.901V69.127z"/>
		</g>
		<g>
			<g>
				<path fill="#1D1F20" d="M-79.515,75.294h-12.439c-0.553,0-1.001-0.448-1.001-1.001c0-0.553,0.448-1.001,1.001-1.001h12.439
					c0.553,0,1.001,0.448,1.001,1.001C-78.514,74.846-78.962,75.294-79.515,75.294z"/>
			</g>
			<g>
				<path fill="#1D1F20" d="M-79.515,78.876h-12.439c-0.553,0-1.001-0.448-1.001-1.001s0.448-1.001,1.001-1.001h12.439
					c0.553,0,1.001,0.448,1.001,1.001S-78.962,78.876-79.515,78.876z"/>
			</g>
			<g>
				<path fill="#1D1F20" d="M-81.777,82.456h-7.915c-0.553,0-1.001-0.448-1.001-1.001s0.448-1.001,1.001-1.001h7.915
					c0.553,0,1.001,0.448,1.001,1.001S-81.224,82.456-81.777,82.456z"/>
			</g>
		</g>
		<g>
			<g>
				<path fill="#1D1F20" d="M-87.336,66.624c-0.553,0-1.001-0.448-1.001-1.001v-26.01c0-0.553,0.448-1.001,1.001-1.001
					c0.553,0,1.001,0.448,1.001,1.001v26.01C-86.335,66.176-86.783,66.624-87.336,66.624z"/>
			</g>
			<g>
				<path fill="#1D1F20" d="M-84.134,66.624c-0.553,0-1.001-0.448-1.001-1.001v-26.01c0-0.553,0.448-1.001,1.001-1.001
					c0.553,0,1.001,0.448,1.001,1.001v26.01C-83.132,66.176-83.58,66.624-84.134,66.624z"/>
			</g>
		</g>
	</g>
	<g>
		<g>
			<g>
				<path fill="#1D1F20" d="M-84.929,23.047c-1.191,0-2.159-0.968-2.159-2.159V9.317c0-1.19,0.968-2.159,2.159-2.159
					s2.159,0.969,2.159,2.159v11.572C-82.771,22.079-83.739,23.047-84.929,23.047z M-84.929,9.16c-0.086,0-0.156,0.07-0.156,0.156
					v11.572c-0.002,0.17,0.315,0.172,0.313,0V9.317C-84.773,9.232-84.845,9.16-84.929,9.16z"/>
			</g>
		</g>
		<g>
			<g>
				<path fill="#1D1F20" d="M-102.343,30.761c-0.577,0-1.118-0.224-1.525-0.63l-9.837-9.839c-0.408-0.409-0.632-0.95-0.632-1.526
					c0-0.577,0.224-1.118,0.633-1.526c0.82-0.817,2.238-0.813,3.051,0.002l9.837,9.836c0.409,0.409,0.632,0.95,0.632,1.526
					c0,0.577-0.225,1.118-0.632,1.526C-101.224,30.538-101.766,30.761-102.343,30.761z M-112.997,17.95l0.708,0.709
					c-0.053,0.052-0.051,0.168,0,0.22l9.946,9.881c0.029,0,0.074-0.008,0.113-0.047c0.051-0.051,0.049-0.167-0.002-0.219
					l-9.837-9.836L-112.997,17.95z"/>
			</g>
		</g>
		<g>
			<g>
				<path fill="#1D1F20" d="M-114.088,47.702h-5.785c-1.19,0-2.159-0.969-2.159-2.159c0-1.19,0.969-2.158,2.159-2.158h5.785
					c1.191,0,2.159,0.968,2.159,2.158C-111.929,46.733-112.897,47.702-114.088,47.702z M-119.873,45.388
					c-0.086,0-0.156,0.069-0.156,0.155c0,0.086,0.07,0.156,0.156,0.156h5.785c0.088,0,0.156-0.068,0.156-0.156
					c0-0.086-0.07-0.155-0.156-0.155H-119.873z"/>
			</g>
		</g>
		<g>
			<g>
				<path fill="#1D1F20" d="M-111.29,72.925c-0.577,0-1.118-0.224-1.525-0.63c-0.411-0.411-0.636-0.954-0.635-1.532
					c0.001-0.577,0.227-1.118,0.637-1.524l5.782-5.784c0.817-0.817,2.239-0.816,3.052,0.001c0.841,0.845,0.839,2.213,0,3.051
					l-5.787,5.785C-110.171,72.7-110.713,72.925-111.29,72.925z M-106.323,64.163l0.708,0.708l-5.785,5.786l-0.708,0.928l0.706-0.71
					l0.113,0.047c0.023,0,0.068-0.006,0.106-0.044l5.789-5.787c0.061-0.061,0.059-0.16-0.002-0.222L-106.323,64.163z"/>
			</g>
		</g>
		<g>
			<g>
				<path fill="#1D1F20" d="M-61.316,74.062c-0.577,0-1.12-0.224-1.527-0.632l-5.785-5.786c-0.409-0.407-0.633-0.949-0.633-1.527
					s0.227-1.119,0.635-1.526c0.813-0.811,2.237-0.813,3.05,0.004l5.784,5.785c0.409,0.408,0.633,0.951,0.633,1.529
					c0,0.577-0.227,1.117-0.635,1.524C-60.192,73.835-60.733,74.062-61.316,74.062z M-66.994,66.008
					c0,0.001-0.221,0.002-0.221,0.002c0,0.001,0.002,0.217,0.002,0.218l5.897,5.831c0.023,0,0.068-0.005,0.102-0.039l0.006-0.226
					L-66.994,66.008z"/>
			</g>
		</g>
		<g>
			<g>
				<path fill="#1D1F20" d="M-51.597,49.312h-5.785c-1.191,0-2.159-0.969-2.159-2.159c0-1.19,0.968-2.159,2.159-2.159h5.785
					c1.191,0,2.159,0.969,2.159,2.159C-49.438,48.343-50.406,49.312-51.597,49.312z M-57.382,46.997
					c-0.086,0-0.156,0.07-0.156,0.156s0.07,0.156,0.156,0.156h5.785c0.086,0,0.156-0.07,0.156-0.156s-0.07-0.156-0.156-0.156
					H-57.382z"/>
			</g>
		</g>
		<g>
			<g>
				<path fill="#1D1F20" d="M-67.989,31.898c-0.577,0-1.12-0.224-1.527-0.632c-0.409-0.408-0.633-0.951-0.633-1.529
					c0-0.576,0.227-1.117,0.635-1.524l9.835-9.835c0.815-0.817,2.241-0.815,3.052,0.002c0.409,0.409,0.632,0.953,0.632,1.532
					c-0.002,0.576-0.229,1.115-0.637,1.52l-9.831,9.834C-66.871,31.675-67.412,31.898-67.989,31.898z M-58.047,19.793l-0.217,0.002
					l-9.837,9.837v0.22l0.111,0.045c0.043,0,0.08-0.016,0.109-0.045l9.835-9.837C-58.045,20.014-58.047,19.793-58.047,19.793z"/>
			</g>
		</g>
	</g>
</g>
<g>
	<g>
		<g>
			<line fill="#FDD343" x1="42.05" y1="-23.356" x2="42.05" y2="-32.81"/>
			<path fill="#FDD343" d="M42.05-22.41c-0.522,0-0.945-0.423-0.945-0.945v-9.454c0-0.522,0.423-0.945,0.945-0.945
				c0.522,0,0.945,0.423,0.945,0.945v9.454C42.995-22.834,42.572-22.41,42.05-22.41z"/>
		</g>
		<g>
			<line fill="#FDD343" x1="27.825" y1="-17.053" x2="19.789" y2="-25.089"/>
			<path fill="#FDD343" d="M27.825-16.107c-0.242,0-0.484-0.092-0.668-0.277L19.12-24.42c-0.369-0.369-0.369-0.968,0-1.337
				c0.369-0.369,0.968-0.369,1.337,0l8.036,8.036c0.369,0.369,0.369,0.968,0,1.337C28.309-16.199,28.067-16.107,27.825-16.107z"/>
		</g>
		<g>
			<line fill="#FDD343" x1="18.229" y1="-3.213" x2="13.502" y2="-3.213"/>
			<path fill="#FDD343" d="M18.229-2.268h-4.727c-0.522,0-0.945-0.423-0.945-0.945s0.423-0.945,0.945-0.945h4.727
				c0.522,0,0.945,0.423,0.945,0.945S18.752-2.268,18.229-2.268z"/>
		</g>
		<g>
			<line fill="#FDD343" x1="25.241" y1="12.666" x2="20.514" y2="17.393"/>
			<path fill="#FDD343" d="M20.514,18.339c-0.242,0-0.484-0.092-0.668-0.277c-0.369-0.369-0.369-0.968,0-1.337l4.727-4.727
				c0.369-0.369,0.968-0.369,1.337,0c0.369,0.369,0.369,0.968,0,1.337l-4.727,4.727C20.998,18.246,20.756,18.339,20.514,18.339z"/>
		</g>
		<g>
			<line fill="#FDD343" x1="56.615" y1="13.595" x2="61.342" y2="18.322"/>
			<path fill="#FDD343" d="M61.342,19.268c-0.242,0-0.484-0.092-0.668-0.277l-4.727-4.727c-0.369-0.369-0.369-0.968,0-1.337
				s0.968-0.369,1.337,0l4.727,4.727c0.369,0.369,0.369,0.968,0,1.337C61.826,19.176,61.584,19.268,61.342,19.268z"/>
		</g>
		<g>
			<line fill="#FDD343" x1="64.556" y1="-1.899" x2="69.283" y2="-1.899"/>
			<path fill="#FDD343" d="M69.283-0.954h-4.727c-0.522,0-0.945-0.423-0.945-0.945s0.423-0.945,0.945-0.945h4.727
				c0.522,0,0.945,0.423,0.945,0.945S69.805-0.954,69.283-0.954z"/>
		</g>
		<g>
			<line fill="#FDD343" x1="55.889" y1="-16.124" x2="63.925" y2="-24.16"/>
			<path fill="#FDD343" d="M55.889-15.178c-0.242,0-0.484-0.092-0.668-0.277c-0.369-0.369-0.369-0.968,0-1.337l8.036-8.036
				c0.369-0.369,0.968-0.369,1.337,0c0.369,0.369,0.369,0.968,0,1.337l-8.036,8.036C56.373-15.271,56.131-15.178,55.889-15.178z"/>
		</g>
	</g>
	<g>
		<g>
			<path fill="#FDD343" d="M50.71-1.682c0-6.715-4.816-12.159-10.756-12.159S29.198-8.398,29.198-1.682
				c0,5.022,2.695,9.332,6.538,11.187v7.835h8.437V9.504C48.016,7.65,50.71,3.34,50.71-1.682z"/>
			<path fill="#FDD343" d="M44.172,18.285h-8.436c-0.522,0-0.945-0.423-0.945-0.945V10.08c-3.99-2.196-6.538-6.743-6.538-11.762
				c0-7.226,5.249-13.105,11.701-13.105c6.452,0,11.702,5.879,11.702,13.105c0,5.019-2.547,9.566-6.538,11.762v7.259
				C45.118,17.861,44.694,18.285,44.172,18.285z M36.681,16.394h6.546v-6.89c0-0.363,0.208-0.694,0.535-0.852
				c3.647-1.759,6.003-5.816,6.003-10.335c0-6.184-4.401-11.214-9.811-11.214s-9.81,5.03-9.81,11.214
				c0,4.519,2.356,8.575,6.003,10.335c0.327,0.158,0.535,0.489,0.535,0.852V16.394z"/>
		</g>
		<g opacity="0.4">
			<g>
				<path fill="#1C1E20" d="M44.754,21.5h-9.6c-0.522,0-0.945-0.423-0.945-0.945s0.423-0.945,0.945-0.945h9.6
					c0.522,0,0.945,0.423,0.945,0.945S45.276,21.5,44.754,21.5z"/>
			</g>
			<g>
				<path fill="#1C1E20" d="M44.754,24.264h-9.6c-0.522,0-0.945-0.423-0.945-0.945s0.423-0.945,0.945-0.945h9.6
					c0.522,0,0.945,0.423,0.945,0.945S45.276,24.264,44.754,24.264z"/>
			</g>
			<g>
				<path fill="#1C1E20" d="M43.008,27.028h-6.109c-0.522,0-0.945-0.423-0.945-0.945c0-0.522,0.423-0.945,0.945-0.945h6.109
					c0.522,0,0.945,0.423,0.945,0.945C43.954,26.604,43.53,27.028,43.008,27.028z"/>
			</g>
		</g>
	</g>
	<g>
		<g>
			<g>
				<path fill="#1C1E20" d="M48.914,15.793h-8.467c-0.645,0-1.168-0.523-1.168-1.168V7.468c-4.01-2.266-6.561-6.865-6.561-11.934
					c0-7.373,5.367-13.372,11.963-13.372c6.597,0,11.964,5.999,11.964,13.372c0,5.07-2.552,9.669-6.562,11.934v7.157
					C50.082,15.27,49.559,15.793,48.914,15.793z M41.615,13.457h6.131V6.762c0-0.448,0.257-0.857,0.66-1.052
					c3.585-1.73,5.902-5.724,5.902-10.176c0-6.085-4.319-11.036-9.628-11.036s-9.627,4.95-9.627,11.036
					c0,4.452,2.316,8.446,5.901,10.176c0.404,0.194,0.66,0.603,0.66,1.052V13.457z"/>
			</g>
		</g>
		<g>
			<g>
				<g>
					<path fill="#1C1E20" d="M49.498,19.02h-9.635c-0.645,0-1.168-0.523-1.168-1.168s0.523-1.168,1.168-1.168h9.635
						c0.645,0,1.168,0.523,1.168,1.168S50.143,19.02,49.498,19.02z"/>
				</g>
			</g>
			<g>
				<g>
					<path fill="#1C1E20" d="M49.498,21.794h-9.635c-0.645,0-1.168-0.523-1.168-1.168s0.523-1.168,1.168-1.168h9.635
						c0.645,0,1.168,0.523,1.168,1.168S50.143,21.794,49.498,21.794z"/>
				</g>
			</g>
			<g>
				<g>
					<path fill="#1C1E20" d="M47.746,24.568h-6.131c-0.645,0-1.168-0.523-1.168-1.168s0.523-1.168,1.168-1.168h6.131
						c0.645,0,1.168,0.523,1.168,1.168S48.391,24.568,47.746,24.568z"/>
				</g>
			</g>
		</g>
		<g>
			<g>
				<g>
					<path fill="#1C1E20" d="M43.44,11.721c-0.323,0-0.584-0.261-0.584-0.584V-9.009c0-0.323,0.261-0.584,0.584-0.584
						s0.584,0.261,0.584,0.584v20.146C44.024,11.46,43.763,11.721,43.44,11.721z"/>
				</g>
			</g>
			<g>
				<g>
					<path fill="#1C1E20" d="M45.922,11.721c-0.323,0-0.584-0.261-0.584-0.584V-9.009c0-0.323,0.261-0.584,0.584-0.584
						s0.584,0.261,0.584,0.584v20.146C46.506,11.46,46.244,11.721,45.922,11.721z"/>
				</g>
			</g>
		</g>
	</g>
	<g>
		<path fill="#1C1E20" d="M44.681-24.709c-0.522,0-0.945-0.423-0.945-0.945v-9.454c0-0.522,0.423-0.945,0.945-0.945
			s0.945,0.423,0.945,0.945v9.454C45.626-25.133,45.203-24.709,44.681-24.709z"/>
	</g>
	<g>
		<path fill="#1C1E20" d="M30.456-18.406c-0.242,0-0.484-0.092-0.668-0.277l-8.036-8.036c-0.369-0.369-0.369-0.968,0-1.337
			c0.369-0.369,0.968-0.369,1.337,0l8.036,8.036c0.369,0.369,0.369,0.968,0,1.337C30.94-18.498,30.698-18.406,30.456-18.406z"/>
	</g>
	<g>
		<path fill="#1C1E20" d="M20.861-4.567h-4.727c-0.522,0-0.945-0.423-0.945-0.945s0.423-0.945,0.945-0.945h4.727
			c0.522,0,0.945,0.423,0.945,0.945S21.383-4.567,20.861-4.567z"/>
	</g>
	<g>
		<path fill="#1C1E20" d="M23.145,16.04c-0.242,0-0.484-0.092-0.668-0.277c-0.369-0.369-0.369-0.968,0-1.337l4.727-4.727
			c0.369-0.369,0.968-0.369,1.337,0c0.369,0.369,0.369,0.968,0,1.337l-4.727,4.727C23.629,15.947,23.387,16.04,23.145,16.04z"/>
	</g>
	<g>
		<path fill="#1C1E20" d="M63.973,16.969c-0.242,0-0.484-0.092-0.668-0.277l-4.727-4.727c-0.369-0.369-0.369-0.968,0-1.337
			s0.968-0.369,1.337,0l4.727,4.727c0.369,0.369,0.369,0.968,0,1.337C64.457,16.876,64.215,16.969,63.973,16.969z"/>
	</g>
	<g>
		<path fill="#1C1E20" d="M71.914-3.253h-4.727c-0.522,0-0.945-0.423-0.945-0.945s0.423-0.945,0.945-0.945h4.727
			c0.522,0,0.945,0.423,0.945,0.945S72.437-3.253,71.914-3.253z"/>
	</g>
	<g>
		<path fill="#1C1E20" d="M58.52-17.477c-0.242,0-0.484-0.092-0.668-0.277c-0.369-0.369-0.369-0.968,0-1.337l8.036-8.036
			c0.369-0.369,0.968-0.369,1.337,0c0.369,0.369,0.369,0.968,0,1.337l-8.036,8.036C59.004-17.57,58.762-17.477,58.52-17.477z"/>
	</g>
</g>
</svg>
