<?xml version="1.0" encoding="utf-8"?>
<!-- Generator: Adobe Illustrator 17.0.0, SVG Export Plug-In . SVG Version: 6.00 Build 0)  -->
<!DOCTYPE svg PUBLIC "-//W3C//DTD SVG 1.1//EN" "http://www.w3.org/Graphics/SVG/1.1/DTD/svg11.dtd">
<svg version="1.1" id="Layer_1" xmlns="http://www.w3.org/2000/svg" xmlns:xlink="http://www.w3.org/1999/xlink" x="0px" y="0px"
	 width="40px" height="40px" viewBox="0 0 40 40" enable-background="new 0 0 40 40" xml:space="preserve">
<g>
	<g>
		<g>
			<path fill="#FFFFFF" d="M24.057,30.114h-7.924c-3.305,0-5.994-2.689-5.994-5.994v-8.455c0-3.305,2.689-5.994,5.994-5.994h7.924
				c3.305,0,5.994,2.689,5.994,5.994v8.455C30.051,27.426,27.362,30.114,24.057,30.114z"/>
		</g>
	</g>
</g>
<g>
	<g>
		<g>
			<path fill="#F941BB" d="M20.784,33.536H12.86c-3.305,0-5.994-2.689-5.994-5.994v-8.455c0-3.305,2.689-5.994,5.994-5.994h7.924
				c3.305,0,5.994,2.689,5.994,5.994v8.455C26.778,30.847,24.089,33.536,20.784,33.536z"/>
		</g>
	</g>
</g>
<g>
	<g>
		<g>
			<path d="M24.057,30.114h-7.924c-3.305,0-5.994-2.689-5.994-5.994v-8.455c0-3.305,2.689-5.994,5.994-5.994h7.924
				c3.305,0,5.994,2.689,5.994,5.994v8.455C30.051,27.426,27.362,30.114,24.057,30.114z M16.133,11.836
				c-2.112,0-3.829,1.718-3.829,3.829v8.455c0,2.112,1.718,3.829,3.829,3.829h7.924c2.112,0,3.829-1.718,3.829-3.829v-8.455
				c0-2.112-1.718-3.829-3.829-3.829H16.133z"/>
		</g>
		<g>
			<path d="M20.095,25.545c-3.132,0-5.68-2.548-5.68-5.68c0-3.133,2.493-5.682,5.558-5.682c0.053,0,0.106,0.001,0.16,0.002
				c1.751,0.051,3.212,0.649,4.224,1.729c0.962,1.027,1.452,2.402,1.417,3.979c-0.033,1.51-0.629,2.925-1.679,3.983
				C23.029,24.953,21.609,25.545,20.095,25.545z M19.974,16.829c-0.768,0-1.495,0.315-2.046,0.887
				c-0.559,0.58-0.867,1.343-0.867,2.149c0,1.673,1.361,3.034,3.034,3.034c1.664,0,2.997-1.346,3.035-3.063
				c0.013-0.607-0.098-1.466-0.703-2.113c-0.519-0.554-1.339-0.863-2.37-0.894C20.029,16.83,20.001,16.829,19.974,16.829z"/>
		</g>
		<g>
			<circle cx="25.462" cy="14.478" r="1.222"/>
		</g>
	</g>
</g>
</svg>
