<?xml version="1.0" encoding="utf-8"?>
<!-- Generator: Adobe Illustrator 17.0.0, SVG Export Plug-In . SVG Version: 6.00 Build 0)  -->
<!DOCTYPE svg PUBLIC "-//W3C//DTD SVG 1.1//EN" "http://www.w3.org/Graphics/SVG/1.1/DTD/svg11.dtd">
<svg version="1.1" id="Layer_1" xmlns="http://www.w3.org/2000/svg" xmlns:xlink="http://www.w3.org/1999/xlink" x="0px" y="0px"
	 width="40px" height="40px" viewBox="0 0 40 40" enable-background="new 0 0 40 40" xml:space="preserve">
<path id="Instagram_4_" fill="#2B5C84" d="M33.973,1.668H6.027c-2.407,0-4.358,1.947-4.358,4.348v27.967
	c0,2.401,1.951,4.348,4.358,4.348h27.947c2.407,0,4.358-1.947,4.358-4.348V6.016C38.332,3.615,36.38,1.668,33.973,1.668z
	 M28.02,7.397c0-0.632,0.513-1.146,1.146-1.146h3.437c0.632,0,1.146,0.513,1.146,1.146v3.437c0,0.632-0.513,1.146-1.146,1.146
	h-3.437c-0.632,0-1.146-0.513-1.146-1.146V7.397z M20.042,13.009c3.894,0,7.051,3.15,7.051,7.034c0,3.885-3.157,7.035-7.051,7.035
	c-3.893,0-7.05-3.15-7.05-7.035C12.993,16.158,16.149,13.009,20.042,13.009z M34.894,33.749c0,0.632-0.513,1.146-1.146,1.146H6.251
	c-0.632,0-1.146-0.513-1.146-1.146V16.563h4.583c-0.597,0.859-0.799,2.462-0.799,3.479c0,6.135,5.003,11.127,11.152,11.127
	c6.15,0,11.154-4.992,11.154-11.127c0-1.017-0.144-2.596-0.885-3.479h4.583V33.749z"/>
</svg>
