<?xml version="1.0" encoding="utf-8"?>
<!-- Generator: Adobe Illustrator 17.0.0, SVG Export Plug-In . SVG Version: 6.00 Build 0)  -->
<!DOCTYPE svg PUBLIC "-//W3C//DTD SVG 1.1//EN" "http://www.w3.org/Graphics/SVG/1.1/DTD/svg11.dtd">
<svg version="1.1" id="Layer_1" xmlns="http://www.w3.org/2000/svg" xmlns:xlink="http://www.w3.org/1999/xlink" x="0px" y="0px"
	 width="40px" height="40px" viewBox="0 0 40 40" enable-background="new 0 0 40 40" xml:space="preserve">
<g opacity="0.5">
	<g>
		<g>
			<path d="M25.229,33.526H14.771c-4.362,0-7.911-3.549-7.911-7.91V14.457c0-4.362,3.549-7.911,7.911-7.911h10.458
				c4.362,0,7.91,3.549,7.91,7.911v11.159C33.139,29.978,29.591,33.526,25.229,33.526z M14.771,9.403
				c-2.787,0-5.054,2.267-5.054,5.054v11.159c0,2.787,2.267,5.054,5.054,5.054h10.458c2.787,0,5.054-2.267,5.054-5.054V14.457
				c0-2.787-2.267-5.054-5.054-5.054H14.771z"/>
		</g>
		<g>
			<path d="M20,27.496c-4.133,0-7.496-3.363-7.496-7.496c0-4.135,3.291-7.498,7.336-7.498c0.07,0,0.141,0.001,0.211,0.003
				c2.311,0.067,4.239,0.857,5.574,2.282c1.269,1.355,1.916,3.171,1.87,5.251c-0.044,1.993-0.831,3.86-2.216,5.257
				C23.872,26.714,21.997,27.496,20,27.496z M19.84,15.993c-1.014,0-1.973,0.416-2.701,1.171c-0.737,0.765-1.144,1.772-1.144,2.836
				c0,2.208,1.796,4.005,4.005,4.005c2.196,0,3.956-1.776,4.005-4.043c0.018-0.801-0.129-1.935-0.928-2.788
				c-0.685-0.732-1.767-1.14-3.128-1.179C19.912,15.994,19.876,15.993,19.84,15.993z"/>
		</g>
		<g>
			<circle cx="27.083" cy="12.89" r="1.613"/>
		</g>
	</g>
</g>
</svg>
