<?xml version="1.0" encoding="utf-8"?>
<!-- Generator: Adobe Illustrator 17.0.0, SVG Export Plug-In . SVG Version: 6.00 Build 0)  -->
<!DOCTYPE svg PUBLIC "-//W3C//DTD SVG 1.1//EN" "http://www.w3.org/Graphics/SVG/1.1/DTD/svg11.dtd">
<svg version="1.1" id="Layer_1" xmlns="http://www.w3.org/2000/svg" xmlns:xlink="http://www.w3.org/1999/xlink" x="0px" y="0px"
	 width="56.625px" height="46.5px" viewBox="0 0 56.625 46.5" enable-background="new 0 0 56.625 46.5" xml:space="preserve">
<g>
	<g>
		<g>
			<g>
				<path fill="#010101" d="M35.089,28.56H17.406c-0.187,0-0.338-0.152-0.338-0.338V7.702c0-0.093,0.039-0.183,0.107-0.247
					l3.493-3.275c0.063-0.059,0.145-0.092,0.231-0.092h14.189c0.187,0,0.338,0.151,0.338,0.338v23.795
					C35.427,28.409,35.275,28.56,35.089,28.56z M17.745,27.884H34.75V4.766H21.034l-3.289,3.083V27.884z"/>
				<path fill="#010101" d="M35.089,29.015H17.406c-0.437,0-0.792-0.356-0.792-0.792V7.702c0-0.219,0.091-0.429,0.251-0.579
					l3.493-3.274c0.146-0.138,0.339-0.215,0.542-0.215h14.189c0.437,0,0.792,0.356,0.792,0.793v23.795
					C35.881,28.659,35.525,29.015,35.089,29.015z M18.199,27.429h16.097V5.22H21.213l-3.014,2.826V27.429z"/>
			</g>
		</g>
	</g>
	<g>
		<g>
			<path fill="#010101" d="M31.434,9.22h-8.154c-0.502,0-0.909-0.407-0.909-0.909s0.407-0.909,0.909-0.909h8.154
				c0.502,0,0.909,0.407,0.909,0.909S31.936,9.22,31.434,9.22z"/>
		</g>
		<g>
			<path fill="#010101" d="M31.434,12.464H20.728c-0.502,0-0.909-0.407-0.909-0.909s0.407-0.909,0.909-0.909h10.706
				c0.502,0,0.909,0.407,0.909,0.909S31.936,12.464,31.434,12.464z"/>
		</g>
		<g>
			<path fill="#010101" d="M31.434,15.708H20.728c-0.502,0-0.909-0.407-0.909-0.909c0-0.502,0.407-0.909,0.909-0.909h10.706
				c0.502,0,0.909,0.407,0.909,0.909C32.342,15.301,31.936,15.708,31.434,15.708z"/>
		</g>
		<g>
			<path fill="#010101" d="M31.601,18.951H20.895c-0.502,0-0.909-0.406-0.909-0.909s0.407-0.909,0.909-0.909h10.706
				c0.502,0,0.909,0.406,0.909,0.909S32.103,18.951,31.601,18.951z"/>
		</g>
		<g>
			<path fill="#010101" d="M31.601,22.195H20.895c-0.502,0-0.909-0.406-0.909-0.909c0-0.502,0.407-0.909,0.909-0.909h10.706
				c0.502,0,0.909,0.406,0.909,0.909C32.509,21.788,32.103,22.195,31.601,22.195z"/>
		</g>
		<g>
			<path fill="#010101" d="M31.601,25.439H20.895c-0.502,0-0.909-0.406-0.909-0.909s0.407-0.909,0.909-0.909h10.706
				c0.502,0,0.909,0.406,0.909,0.909S32.103,25.439,31.601,25.439z"/>
		</g>
	</g>
</g>
<g>
	<path d="M9.02,34.223c0.469,0.498,0.66,1.214,0.572,2.148s-0.417,1.653-0.983,2.155c-0.567,0.503-1.316,0.754-2.246,0.754H5.009
		l-0.307,3.278H3.153l0.851-9.082H6.92C7.85,33.477,8.55,33.726,9.02,34.223z M6.516,37.787c0.446,0,0.797-0.13,1.053-0.391
		c0.256-0.26,0.402-0.6,0.439-1.019c0.046-0.418-0.035-0.763-0.244-1.032s-0.542-0.404-0.998-0.404H5.414l-0.265,2.846H6.516z"/>
	<path d="M11.412,32.988h1.549l-0.907,9.57H10.52L11.412,32.988z"/>
	<path d="M16.895,38.582c0.409,0,0.907,0.084,1.493,0.252l0.07-0.643c0.009-0.064,0.014-0.125,0.014-0.181v-0.153
		c0-0.354-0.077-0.614-0.23-0.782c-0.153-0.167-0.407-0.251-0.76-0.251s-0.642,0.086-0.865,0.259
		c-0.223,0.172-0.354,0.406-0.391,0.704h-1.674c0.083-0.771,0.388-1.332,0.914-1.681c0.525-0.35,1.198-0.523,2.016-0.523
		c1.684,0,2.525,0.758,2.525,2.274v0.181c0,0.065-0.005,0.135-0.014,0.21l-0.404,4.311h-1.326c-0.019-0.148-0.028-0.298-0.028-0.446
		s-0.005-0.303-0.014-0.461c-0.484,0.735-1.116,1.103-1.897,1.103c-0.744,0-1.316-0.19-1.716-0.572
		c-0.372-0.354-0.558-0.813-0.558-1.381c0-0.744,0.289-1.312,0.865-1.702C15.407,38.755,16.067,38.582,16.895,38.582z M18.29,39.922
		c-0.446-0.148-0.818-0.224-1.116-0.224c-0.298,0-0.523,0.019-0.677,0.056c-0.153,0.038-0.291,0.094-0.412,0.168
		c-0.27,0.167-0.405,0.386-0.405,0.655c0,0.271,0.088,0.484,0.265,0.643s0.405,0.236,0.684,0.236c0.279,0,0.504-0.039,0.677-0.118
		c0.172-0.079,0.328-0.188,0.467-0.328C18.062,40.722,18.234,40.359,18.29,39.922z"/>
	<path d="M23.759,36.908c0.493-0.884,1.176-1.325,2.051-1.325c0.734,0,1.279,0.279,1.632,0.837c0.316,0.502,0.437,1.228,0.363,2.177
		l-0.363,3.962h-1.535l0.363-3.962c0.056-0.493-0.012-0.863-0.203-1.109c-0.19-0.246-0.481-0.37-0.872-0.37s-0.745,0.2-1.061,0.601
		c-0.316,0.399-0.512,1.009-0.586,1.827l-0.279,3.014h-1.535l0.642-6.794h1.339L23.759,36.908z"/>
	<path d="M33.064,42.392c-0.567,0.241-1.014,0.362-1.339,0.362c-0.326,0-0.605-0.042-0.838-0.126
		c-0.232-0.083-0.432-0.209-0.6-0.376c-0.362-0.372-0.507-0.902-0.433-1.591l0.349-3.767h-0.837l0.111-1.13h0.838l0.167-1.772h1.535
		l-0.168,1.772h1.633l-0.112,1.13h-1.646l-0.335,3.711c-0.056,0.539,0.153,0.81,0.628,0.81c0.241,0,0.553-0.075,0.935-0.224
		L33.064,42.392z"/>
	<path d="M35.353,35.75h1.521l-0.642,6.809h-1.521L35.353,35.75z M35.353,33.588c0.037-0.298,0.146-0.537,0.328-0.719
		c0.181-0.182,0.42-0.271,0.718-0.271s0.519,0.09,0.663,0.271c0.144,0.182,0.202,0.426,0.174,0.732
		c-0.019,0.298-0.12,0.535-0.307,0.712c-0.186,0.177-0.428,0.265-0.726,0.265c-0.288,0-0.507-0.088-0.655-0.265
		C35.398,34.137,35.334,33.895,35.353,33.588z"/>
	<path d="M39.621,32.988h1.549l-0.907,9.57h-1.534L39.621,32.988z"/>
	<path d="M43.472,32.988h1.549l-0.907,9.57h-1.534L43.472,32.988z"/>
	<path d="M48.955,38.582c0.409,0,0.906,0.084,1.492,0.252l0.07-0.643c0.009-0.064,0.014-0.125,0.014-0.181v-0.153
		c0-0.354-0.077-0.614-0.23-0.782c-0.153-0.167-0.407-0.251-0.76-0.251c-0.354,0-0.643,0.086-0.865,0.259
		c-0.224,0.172-0.354,0.406-0.391,0.704H46.61c0.084-0.771,0.389-1.332,0.914-1.681c0.525-0.35,1.197-0.523,2.017-0.523
		c1.683,0,2.524,0.758,2.524,2.274v0.181c0,0.065-0.004,0.135-0.014,0.21l-0.404,4.311h-1.325c-0.02-0.148-0.028-0.298-0.028-0.446
		s-0.005-0.303-0.014-0.461c-0.484,0.735-1.116,1.103-1.897,1.103c-0.744,0-1.316-0.19-1.716-0.572
		c-0.372-0.354-0.559-0.813-0.559-1.381c0-0.744,0.288-1.312,0.865-1.702C47.467,38.755,48.127,38.582,48.955,38.582z M50.35,39.922
		c-0.446-0.148-0.818-0.224-1.116-0.224s-0.522,0.019-0.677,0.056c-0.153,0.038-0.29,0.094-0.411,0.168
		c-0.27,0.167-0.404,0.386-0.404,0.655c0,0.271,0.088,0.484,0.265,0.643s0.404,0.236,0.684,0.236s0.505-0.039,0.677-0.118
		s0.328-0.188,0.468-0.328C50.122,40.722,50.294,40.359,50.35,39.922z"/>
</g>
</svg>
