<?xml version="1.0" encoding="utf-8"?>
<!-- Generator: Adobe Illustrator 17.0.0, SVG Export Plug-In . SVG Version: 6.00 Build 0)  -->
<!DOCTYPE svg PUBLIC "-//W3C//DTD SVG 1.1//EN" "http://www.w3.org/Graphics/SVG/1.1/DTD/svg11.dtd">
<svg version="1.1" id="Layer_1" xmlns="http://www.w3.org/2000/svg" xmlns:xlink="http://www.w3.org/1999/xlink" x="0px" y="0px"
	 width="40px" height="40px" viewBox="0 0 40 40" enable-background="new 0 0 40 40" xml:space="preserve">
<g>
	<g>
		<g>
			<path fill="#FFFFFF" d="M30.903,35.897H9.114c-0.23,0-0.417-0.187-0.417-0.417V10.194c0-0.115,0.048-0.225,0.132-0.304
				l4.305-4.035c0.077-0.073,0.179-0.113,0.285-0.113h17.485c0.23,0,0.417,0.187,0.417,0.417V35.48
				C31.32,35.71,31.133,35.897,30.903,35.897z"/>
		</g>
		<g>
			<path fill="#010101" stroke="#010101" stroke-linecap="round" stroke-linejoin="round" stroke-miterlimit="10" d="M30.886,35.897
				H9.097c-0.23,0-0.417-0.187-0.417-0.417V10.194c0-0.115,0.048-0.225,0.132-0.304l4.305-4.035
				c0.077-0.073,0.179-0.113,0.285-0.113h17.485c0.23,0,0.417,0.187,0.417,0.417V35.48C31.303,35.71,31.117,35.897,30.886,35.897z
				 M9.514,35.063H30.47V6.576H13.567l-4.053,3.799V35.063z"/>
		</g>
	</g>
	<g>
		<defs>
			<polygon id="SVGID_1_" points="14.853,9.387 28.488,9.387 28.488,32.252 11.496,32.252 11.496,12.534 			"/>
		</defs>
		<clipPath id="SVGID_2_">
			<use xlink:href="#SVGID_1_"  overflow="visible"/>
		</clipPath>
		<g clip-path="url(#SVGID_2_)">
			<g>
				
					<rect x="11.005" y="6.637" fill="#010101" stroke="#010101" stroke-width="0.5" stroke-linecap="round" stroke-linejoin="round" stroke-miterlimit="10" width="17.973" height="2.003"/>
			</g>
			<g>
				
					<rect x="11.005" y="9.932" fill="#010101" stroke="#010101" stroke-width="0.5" stroke-linecap="round" stroke-linejoin="round" stroke-miterlimit="10" width="17.973" height="2.003"/>
			</g>
			<g>
				
					<rect x="11.005" y="13.227" fill="#010101" stroke="#010101" stroke-width="0.5" stroke-linecap="round" stroke-linejoin="round" stroke-miterlimit="10" width="17.973" height="2.003"/>
			</g>
			<g>
				
					<rect x="11.005" y="16.523" fill="#010101" stroke="#010101" stroke-width="0.5" stroke-linecap="round" stroke-linejoin="round" stroke-miterlimit="10" width="17.973" height="2.003"/>
			</g>
			<g>
				
					<rect x="11.005" y="19.818" fill="#010101" stroke="#010101" stroke-width="0.5" stroke-linecap="round" stroke-linejoin="round" stroke-miterlimit="10" width="17.973" height="2.003"/>
			</g>
			<g>
				
					<rect x="11.005" y="23.114" fill="#010101" stroke="#010101" stroke-width="0.5" stroke-linecap="round" stroke-linejoin="round" stroke-miterlimit="10" width="17.973" height="2.003"/>
			</g>
			<g>
				
					<rect x="11.005" y="26.409" fill="#010101" stroke="#010101" stroke-width="0.5" stroke-linecap="round" stroke-linejoin="round" stroke-miterlimit="10" width="17.973" height="2.003"/>
			</g>
			<g>
				
					<rect x="11.005" y="29.705" fill="#010101" stroke="#010101" stroke-width="0.5" stroke-linecap="round" stroke-linejoin="round" stroke-miterlimit="10" width="17.973" height="2.003"/>
			</g>
			<g>
				
					<rect x="11.005" y="33" fill="#010101" stroke="#010101" stroke-width="0.5" stroke-linecap="round" stroke-linejoin="round" stroke-miterlimit="10" width="17.973" height="2.003"/>
			</g>
		</g>
		
			<use xlink:href="#SVGID_1_"  overflow="visible" fill="none" stroke="#FFFFFF" stroke-width="2" stroke-linecap="round" stroke-linejoin="round" stroke-miterlimit="10"/>
	</g>
</g>
</svg>
