<?xml version="1.0" encoding="utf-8"?>
<!-- Generator: Adobe Illustrator 17.0.0, SVG Export Plug-In . SVG Version: 6.00 Build 0)  -->
<!DOCTYPE svg PUBLIC "-//W3C//DTD SVG 1.1//EN" "http://www.w3.org/Graphics/SVG/1.1/DTD/svg11.dtd">
<svg version="1.1" id="Layer_1" xmlns="http://www.w3.org/2000/svg" xmlns:xlink="http://www.w3.org/1999/xlink" x="0px" y="0px"
	 width="40px" height="40px" viewBox="0 0 40 40" enable-background="new 0 0 40 40" xml:space="preserve">
<path id="Twitter_4_" opacity="0.5" d="M36.215,5.636c-1.339,0.812-2.819,1.404-4.399,1.72c-1.26-1.379-3.06-2.24-5.053-2.24
	c-3.821,0-6.92,3.179-6.92,7.099c0,0.557,0.059,1.097,0.178,1.617c-5.754-0.296-10.854-3.12-14.271-7.42
	C5.154,7.464,4.813,8.685,4.813,9.985c0,2.462,1.222,4.635,3.08,5.908c-1.133-0.035-2.203-0.357-3.137-0.886v0.087
	c0,3.441,2.387,6.311,5.556,6.961c-0.58,0.167-1.192,0.25-1.824,0.25c-0.446,0-0.881-0.043-1.303-0.126
	c0.881,2.819,3.437,4.873,6.467,4.927c-2.369,1.905-5.356,3.041-8.598,3.041c-0.559,0-1.111-0.033-1.652-0.098
	c3.064,2.011,6.705,3.187,10.613,3.187c12.736,0,19.698-10.816,19.698-20.197c0-0.309-0.006-0.617-0.018-0.92
	c1.353-1.001,2.527-2.251,3.452-3.674c-1.24,0.565-2.575,0.946-3.975,1.117C34.6,8.685,35.698,7.294,36.215,5.636z"/>
</svg>
