<?xml version="1.0" encoding="utf-8"?>
<!-- Generator: Adobe Illustrator 17.0.0, SVG Export Plug-In . SVG Version: 6.00 Build 0)  -->
<!DOCTYPE svg PUBLIC "-//W3C//DTD SVG 1.1//EN" "http://www.w3.org/Graphics/SVG/1.1/DTD/svg11.dtd">
<svg version="1.1" id="Layer_1" xmlns="http://www.w3.org/2000/svg" xmlns:xlink="http://www.w3.org/1999/xlink" x="0px" y="0px"
	 width="40px" height="40px" viewBox="0 0 40 40" enable-background="new 0 0 40 40" xml:space="preserve">
<path id="Twitter_4_" fill="#2FA8DF" d="M37.694,4.971c-1.486,0.902-3.128,1.558-4.883,1.909c-1.398-1.531-3.397-2.487-5.608-2.487
	c-4.241,0-7.681,3.528-7.681,7.879c0,0.618,0.066,1.217,0.198,1.794C13.333,13.739,7.673,10.605,3.88,5.833
	C3.219,7,2.841,8.355,2.841,9.798c0,2.732,1.356,5.144,3.418,6.558c-1.257-0.038-2.445-0.397-3.482-0.983v0.097
	c0,3.819,2.649,7.004,6.166,7.726c-0.644,0.185-1.323,0.277-2.025,0.277c-0.495,0-0.978-0.047-1.447-0.14
	c0.978,3.129,3.814,5.408,7.178,5.469c-2.629,2.115-5.944,3.375-9.543,3.375c-0.62,0-1.233-0.036-1.833-0.108
	c3.401,2.232,7.441,3.537,11.779,3.537c14.136,0,21.863-12.004,21.863-22.417c0-0.343-0.007-0.685-0.02-1.021
	c1.501-1.111,2.805-2.498,3.832-4.078c-1.376,0.627-2.858,1.05-4.412,1.24C35.902,8.355,37.12,6.811,37.694,4.971z"/>
</svg>
