<?xml version="1.0" encoding="utf-8"?>
<!-- Generator: Adobe Illustrator 17.0.0, SVG Export Plug-In . SVG Version: 6.00 Build 0)  -->
<!DOCTYPE svg PUBLIC "-//W3C//DTD SVG 1.1//EN" "http://www.w3.org/Graphics/SVG/1.1/DTD/svg11.dtd">
<svg version="1.1" id="Layer_1" xmlns="http://www.w3.org/2000/svg" xmlns:xlink="http://www.w3.org/1999/xlink" x="0px" y="0px"
	 width="40px" height="40px" viewBox="0 0 40 40" enable-background="new 0 0 40 40" xml:space="preserve">
<path id="Twitter_3_" fill="#FFFFFF" stroke="#FFFFFF" stroke-miterlimit="10" d="M30.153,10.757
	c-0.826,0.501-1.738,0.866-2.713,1.061c-0.777-0.851-1.887-1.382-3.116-1.382c-2.356,0-4.268,1.96-4.268,4.378
	c0,0.343,0.037,0.676,0.11,0.997c-3.549-0.183-6.694-1.924-8.802-4.576c-0.368,0.649-0.578,1.402-0.578,2.203
	c0,1.518,0.754,2.859,1.9,3.644c-0.699-0.021-1.358-0.22-1.935-0.546v0.054c0,2.122,1.472,3.892,3.427,4.293
	c-0.358,0.103-0.735,0.154-1.125,0.154c-0.275,0-0.544-0.026-0.804-0.078c0.544,1.739,2.119,3.005,3.988,3.039
	c-1.461,1.175-3.303,1.875-5.303,1.875c-0.344,0-0.685-0.02-1.019-0.06c1.89,1.24,4.135,1.965,6.545,1.965
	c7.855,0,12.149-6.671,12.149-12.457c0-0.19-0.004-0.381-0.011-0.567c0.834-0.618,1.559-1.388,2.129-2.266
	c-0.765,0.348-1.588,0.584-2.452,0.689C29.158,12.637,29.834,11.779,30.153,10.757z"/>
<path id="Twitter_1_" fill="#24A9E6" stroke="#24A9E6" stroke-linecap="round" stroke-linejoin="round" stroke-miterlimit="10" d="
	M28.285,13.431c-0.826,0.501-1.738,0.866-2.713,1.061c-0.777-0.851-1.887-1.382-3.116-1.382c-2.356,0-4.268,1.96-4.268,4.378
	c0,0.343,0.037,0.676,0.11,0.997c-3.549-0.183-6.694-1.924-8.802-4.576c-0.368,0.649-0.578,1.402-0.578,2.203
	c0,1.518,0.754,2.859,1.9,3.644c-0.699-0.021-1.358-0.22-1.935-0.546v0.054c0,2.122,1.472,3.892,3.427,4.293
	c-0.358,0.103-0.735,0.154-1.125,0.154c-0.275,0-0.544-0.026-0.804-0.078c0.544,1.739,2.119,3.005,3.988,3.039
	c-1.461,1.175-3.303,1.875-5.303,1.875c-0.344,0-0.685-0.02-1.019-0.06c1.89,1.24,4.135,1.965,6.545,1.965
	c7.855,0,12.149-6.671,12.149-12.457c0-0.19-0.004-0.381-0.011-0.567c0.834-0.618,1.559-1.388,2.129-2.266
	c-0.765,0.348-1.588,0.584-2.452,0.689C27.289,15.311,27.966,14.453,28.285,13.431z"/>
<path id="Twitter_4_" fill="none" stroke="#000000" stroke-width="1.5" stroke-linecap="round" stroke-linejoin="round" stroke-miterlimit="10" d="
	M30.153,10.757c-0.826,0.501-1.738,0.866-2.713,1.061c-0.777-0.851-1.887-1.382-3.116-1.382c-2.356,0-4.268,1.96-4.268,4.378
	c0,0.343,0.037,0.676,0.11,0.997c-3.549-0.183-6.694-1.924-8.802-4.576c-0.368,0.649-0.578,1.402-0.578,2.203
	c0,1.518,0.754,2.859,1.9,3.644c-0.699-0.021-1.358-0.22-1.935-0.546v0.054c0,2.122,1.472,3.892,3.427,4.293
	c-0.358,0.103-0.735,0.154-1.125,0.154c-0.275,0-0.544-0.026-0.804-0.078c0.544,1.739,2.119,3.005,3.988,3.039
	c-1.461,1.175-3.303,1.875-5.303,1.875c-0.344,0-0.685-0.02-1.019-0.06c1.89,1.24,4.135,1.965,6.545,1.965
	c7.855,0,12.149-6.671,12.149-12.457c0-0.19-0.004-0.381-0.011-0.567c0.834-0.618,1.559-1.388,2.129-2.266
	c-0.765,0.348-1.588,0.584-2.452,0.689C29.158,12.637,29.834,11.779,30.153,10.757z"/>
</svg>
