<?xml version="1.0" encoding="utf-8"?>
<!-- Generator: Adobe Illustrator 17.0.0, SVG Export Plug-In . SVG Version: 6.00 Build 0)  -->
<!DOCTYPE svg PUBLIC "-//W3C//DTD SVG 1.1//EN" "http://www.w3.org/Graphics/SVG/1.1/DTD/svg11.dtd">
<svg version="1.1" id="Layer_1" xmlns="http://www.w3.org/2000/svg" xmlns:xlink="http://www.w3.org/1999/xlink" x="0px" y="0px"
	 width="67.667px" height="90px" viewBox="25.167 3.723 67.667 90" enable-background="new 25.167 3.723 67.667 90"
	 xml:space="preserve">
<g id="Layer_1_1_">
</g>
<g id="Layer_2" display="none">
</g>
<g id="Layer_5" display="none">
</g>
<g id="Layer_6">
</g>
<g id="Layer_8" display="none">
</g>
<g id="Layer_7">
</g>
<g id="Layer_9">
</g>
<g id="Layer_10">
</g>
<g>
	<g>
		<g>
			<path d="M85.01,84.237H32.912c-0.551,0-0.997-0.447-0.997-0.997V22.781c0-0.275,0.114-0.539,0.315-0.727l10.293-9.648
				c0.185-0.173,0.428-0.27,0.682-0.27H85.01c0.55,0,0.997,0.446,0.997,0.997V83.24C86.007,83.79,85.56,84.237,85.01,84.237z
				 M33.908,82.243h50.105V14.129H43.599l-9.69,9.083V82.243z"/>
		</g>
		<g>
			<g>
				<path d="M86.477,19.291c-0.087,0-0.171-0.035-0.233-0.1l-6.429-6.756c-0.084-0.088-0.111-0.215-0.07-0.329
					c0.04-0.114,0.141-0.196,0.261-0.212l1.156-0.153l-0.057-1.567c-0.003-0.09,0.031-0.177,0.095-0.24
					c0.063-0.063,0.141-0.098,0.242-0.093l1.391,0.067l0.408-1.129c0.038-0.105,0.128-0.182,0.237-0.205
					c0.109-0.024,0.222,0.012,0.299,0.093l6.429,6.756c0.087,0.092,0.112,0.226,0.065,0.343c-0.048,0.117-0.16,0.196-0.287,0.2
					l-1.051,0.036l-0.357,1.351c-0.036,0.138-0.16,0.235-0.302,0.239l-1.187,0.033l-0.293,1.411
					c-0.024,0.117-0.111,0.211-0.226,0.244C86.536,19.287,86.507,19.291,86.477,19.291z M80.716,12.449l5.571,5.854l0.22-1.059
					c0.03-0.146,0.157-0.252,0.306-0.256l1.201-0.033l0.357-1.35c0.036-0.137,0.158-0.234,0.3-0.239l0.574-0.02l-5.576-5.86
					l-0.312,0.863c-0.048,0.133-0.166,0.216-0.318,0.212L81.76,10.5l0.055,1.51c0.006,0.166-0.115,0.309-0.28,0.33L80.716,12.449z"
					/>
			</g>
			<g>
				<path d="M83.294,87.88c-0.041,0-0.082-0.008-0.122-0.024c-0.117-0.048-0.195-0.16-0.2-0.287l-0.036-1.051l-1.351-0.357
					c-0.138-0.036-0.236-0.16-0.239-0.302l-0.033-1.187l-1.41-0.293c-0.117-0.024-0.211-0.111-0.244-0.227
					c-0.033-0.115,0.001-0.239,0.087-0.321l6.756-6.429c0.088-0.084,0.216-0.109,0.329-0.07c0.114,0.04,0.196,0.141,0.212,0.261
					l0.153,1.155l1.567-0.057c0.104,0,0.178,0.032,0.241,0.095c0.063,0.064,0.097,0.152,0.092,0.242L89.03,80.42l1.129,0.407
					c0.105,0.038,0.183,0.128,0.205,0.237c0.023,0.109-0.012,0.222-0.093,0.299l-6.756,6.429
					C83.455,87.85,83.376,87.88,83.294,87.88z M81.983,85.601l1.35,0.357c0.137,0.036,0.234,0.158,0.239,0.3l0.019,0.574l5.86-5.577
					l-0.864-0.311c-0.133-0.048-0.219-0.177-0.212-0.318l0.062-1.279l-1.509,0.055c-0.194-0.004-0.309-0.115-0.331-0.28
					l-0.108-0.819l-5.854,5.57l1.058,0.22c0.146,0.03,0.252,0.157,0.256,0.306L81.983,85.601z"/>
			</g>
			<g>
				<path d="M34.379,87.487c-0.087,0-0.171-0.035-0.233-0.1l-6.429-6.756c-0.083-0.088-0.111-0.215-0.07-0.329
					c0.041-0.114,0.141-0.196,0.261-0.212l1.156-0.153l-0.057-1.568c-0.003-0.09,0.031-0.177,0.095-0.241
					c0.064-0.063,0.153-0.102,0.242-0.092l1.391,0.067l0.408-1.129c0.038-0.105,0.127-0.183,0.236-0.205
					c0.11-0.022,0.222,0.012,0.299,0.093l6.429,6.757c0.087,0.092,0.112,0.226,0.065,0.344c-0.048,0.117-0.16,0.195-0.287,0.2
					l-1.051,0.035l-0.357,1.351c-0.036,0.138-0.159,0.235-0.302,0.239l-1.188,0.033l-0.293,1.41
					c-0.024,0.117-0.112,0.211-0.227,0.244C34.438,87.483,34.408,87.487,34.379,87.487z M28.618,80.644l5.571,5.854l0.22-1.058
					c0.03-0.146,0.157-0.252,0.306-0.256l1.202-0.033l0.357-1.35c0.036-0.137,0.158-0.234,0.3-0.239l0.574-0.019l-5.577-5.861
					l-0.312,0.864c-0.048,0.133-0.182,0.226-0.318,0.212l-1.279-0.062l0.055,1.51c0.006,0.166-0.115,0.309-0.279,0.331
					L28.618,80.644z"/>
			</g>
		</g>
	</g>
	<g opacity="0.2">
		<defs>
			<polygon id="SVGID_1_" opacity="0.2" points="46.674,20.851 79.274,20.851 79.274,75.522 38.647,75.522 38.647,28.375 			"/>
		</defs>
		<clipPath id="SVGID_2_">
			<use xlink:href="#SVGID_1_"  overflow="visible"/>
		</clipPath>
		<g clip-path="url(#SVGID_2_)">
			<g>
				<rect x="37.473" y="14.275" width="42.974" height="4.788"/>
			</g>
			<g>
				<rect x="37.473" y="22.154" width="42.974" height="4.788"/>
			</g>
			<g>
				<rect x="37.473" y="30.033" width="42.974" height="4.788"/>
			</g>
			<g>
				<rect x="37.473" y="37.913" width="42.974" height="4.788"/>
			</g>
			<g>
				<rect x="37.473" y="45.792" width="42.974" height="4.788"/>
			</g>
			<g>
				<rect x="37.473" y="53.671" width="42.974" height="4.788"/>
			</g>
			<g>
				<rect x="37.473" y="61.551" width="42.974" height="4.788"/>
			</g>
			<g>
				<rect x="37.473" y="69.43" width="42.974" height="4.788"/>
			</g>
			<g>
				<rect x="37.473" y="77.309" width="42.974" height="4.788"/>
			</g>
		</g>
	</g>
</g>
</svg>
