<?xml version="1.0" encoding="utf-8"?>
<!-- Generator: Adobe Illustrator 17.0.0, SVG Export Plug-In . SVG Version: 6.00 Build 0)  -->
<!DOCTYPE svg PUBLIC "-//W3C//DTD SVG 1.1//EN" "http://www.w3.org/Graphics/SVG/1.1/DTD/svg11.dtd">
<svg version="1.1" xmlns="http://www.w3.org/2000/svg" xmlns:xlink="http://www.w3.org/1999/xlink" x="0px" y="0px" width="217px"
	 height="182px" viewBox="0 0 217 182" enable-background="new 0 0 217 182" xml:space="preserve">
<g id="Layer_1">
</g>
<g id="Layer_2" display="none">
</g>
<g id="Layer_3">
	<g>
		<g>
			<defs>
				<path id="SVGID_5_" d="M157.204,27.671c-3.144,0.002-15.098-1.175-15.308,2.912c0.161,0.038,4.921,1.36,4.926,1.313
					c-0.021,0.201,3.094,0.928,3.124,1.118c-5.094,1.277-11.084,3.972-16.431,4.246c-1.985,0.102-5.077,0.486-7.039,0
					c-3.417-0.847-3.904-3.439-6.569-5.431c-6.108-4.567-18.429-0.61-25.837-0.866c-1.52-3.22-3.736-5.979-6.298-8.199
					c-2.998-2.598-6.476-3.505-9.737-5.819c-2.961-2.102-3.048-4.435-5.604-7.297c-3.805-4.261-3.287-0.35-3.779,3.789
					c1.857,0.98,4.648,1.431,4.03,4.174c0.107-0.475-13.373,5.379-14.747,6.151c-4.478,2.515-8.295,4.936-6.414,10.721
					c1.481,4.554,5.785,14.538,0.095,17.946c-4.919,2.946-6.1-2.519-6.769-6.025c-0.807-4.23-1.866-7.136-0.007-11.663
					c1.674-4.078,3.819-8.534,2.925-13.331c-0.595-3.192-1.448-2.361,0.312-4.664c1.312-1.717,4.147-1.516,3.008-4.071
					c0,0-9.58,8.33-9.58,8.331c-8.639,8.999-11.295,19.126-16.13,30.195c1.355-3.101,9.545,6.514,10.059,7.733
					c0.758,1.796,4.238,14.114-1.197,11.982c-1.005-0.394,1.279,7.211,1.991,8.004c2.163,2.41,5.213,3.203,8.22,4.071
					c7.294,2.104,16.266,1.125,22.937,4.923c3.431,1.953,4.294,6.326,7.489,8.288c4.07,2.491,14.212-0.393,18.708-0.811
					c11.091-1.032-0.129,17.668-0.256,23.258c-0.16,7.065,1.83,13.213,5.183,19.354c-2.44,1.921-5.758,3.304-4.892,6.633
					c0.779,2.984,3.732,4.943,5.389,7.39c1.697,2.505,2.5,5.266,3.652,8.054c3.965,9.589,7.285,16.461,19.086,13.127
					c1.619,5.073,8.9,0.809,11.245-1.477c2.004-1.953,2.506-4.39,4.498-6.186c0.873-0.787,2.459,0.258,3.329-0.932
					c2.266-3.109-1.348-5.228,3.142-7.701c2.304-1.269,5.567-0.551,7.508-2.608c2.9-3.073-0.82-3.542-3.325-4.173
					c-5.599-1.411-6.639-6.175-7.531-11.165c-0.446-2.498-0.725-5.064-1.781-7.403c-1.199-2.658-4.241-4.904-3.96-8.035
					c0.226-2.518,6.916,4.117,7.067,4.247c3.906,3.374,6.071,1.4,10.8,2.03c2.238,0.298,4.171,1.642,6.428,1.822
					c-0.147-0.012,4.98-4.944,5.696-5.396c8.557-5.402,23.562-5.47,22.784-18.947c-6.718-2.688-12.425-12.672-4.958-18.41
					c3.4-2.613,7.369-0.809,7.519-7.175c0.118-4.998-1.494-6.307,2.178-10.583c2.805-3.268,7.689-7.364,2.925-10.223
					c-2.794-1.677-6.557-0.425-9.371,0c-3.319,0.501-7.269,1.083-4.83-3.626c1.306-2.519,3.952-2.729,4.596-5.872
					c1.509-7.377-6.916-8.905-11.953-10.473c-2.344-0.73-5.152-1.258-7.138-2.786c-1.175-0.904-2.884-2.974-3.206-4.438
					c-0.274-1.249,0.758-1.053,1.599-1.221c1.823-0.363,3.178-1.862,5.03-2.182c1.053-0.182,3.085,0.041,3.482-1.295
					c0.5-1.685-2.403-1.638-3.343-1.72C165.846,26.896,161.53,27.668,157.204,27.671z"/>
			</defs>
			<clipPath id="SVGID_2_">
				<use xlink:href="#SVGID_5_"  overflow="visible"/>
			</clipPath>
			<g clip-path="url(#SVGID_2_)">
				<g>
					
						<rect x="-56.086" y="-10.939" transform="matrix(0.916 -0.4012 0.4012 0.916 0.0229 42.3648)" fill="#FFD300" width="314.524" height="64.133"/>
				</g>
				<g>
					
						<rect x="-30.357" y="47.807" transform="matrix(0.916 -0.4012 0.4012 0.916 -21.3837 57.6216)" fill="#233F89" width="314.524" height="64.133"/>
				</g>
				<g>
					
						<rect x="-5.699" y="104.105" transform="matrix(0.916 -0.4012 0.4012 0.916 -41.8983 72.2428)" fill="#DB2C38" width="314.524" height="64.133"/>
				</g>
			</g>
		</g>
		<g>
			<g>
				<path fill="#010101" d="M117.086,172.071c-1.727,0-3.043-0.774-3.785-2.201c-1.789,0.452-3.4,0.673-4.902,0.673
					c-8.48,0-11.54-7.401-14.499-14.559c-0.298-0.719-0.572-1.436-0.844-2.148c-0.779-2.037-1.515-3.962-2.718-5.738
					c-0.553-0.817-1.272-1.586-2.032-2.4c-1.44-1.541-2.929-3.135-3.488-5.278c-0.865-3.324,1.614-5.053,3.802-6.578
					c0.262-0.183,0.529-0.369,0.791-0.558c-3.495-6.617-5.059-12.709-4.913-19.109c0.041-1.804,1.046-4.598,2.211-7.835
					c1.79-4.976,4.018-11.17,2.375-13.507c-0.563-0.801-1.646-1.116-3.305-0.963c-1.106,0.103-2.569,0.361-4.262,0.659
					c-3.08,0.543-6.571,1.159-9.639,1.159c-2.369,0-4.129-0.373-5.383-1.141c-1.728-1.061-2.81-2.702-3.855-4.289
					c-1.047-1.589-2.036-3.09-3.608-3.984c-3.877-2.207-8.73-2.75-13.424-3.275c-3.127-0.35-6.361-0.712-9.31-1.562L35.9,79.323
					c-2.957-0.849-6.015-1.727-8.263-4.232c-0.771-0.859-2.971-7.532-2.349-8.925c0.24-0.537,0.852-0.792,1.398-0.577
					c0.309,0.121,0.574,0.182,0.787,0.182c0.247,0,0.389-0.076,0.525-0.281c1.234-1.861-0.622-8.994-1.32-10.647
					c-0.531-1.148-6.388-7.773-8.285-7.773c-0.018-0.017-0.031,0.003-0.049,0.047c-0.001,0.002-0.001,0.003-0.002,0.004
					c-0.208,0.474-0.76,0.691-1.234,0.484c-0.474-0.207-0.691-0.76-0.484-1.234l0,0c1.052-2.409,2.01-4.794,2.935-7.101
					c3.344-8.334,6.502-16.206,13.377-23.368l0.02,0.02c0.243-0.254,0.696-0.647,1.538-1.38l8.083-7.029
					c0.225-0.195,0.528-0.272,0.818-0.208c0.29,0.064,0.533,0.262,0.653,0.534c1.081,2.425-0.64,3.38-1.669,3.951
					c-0.541,0.3-1.101,0.611-1.452,1.07c-0.911,1.193-0.911,1.193-0.71,1.773c0.151,0.437,0.38,1.097,0.575,2.151
					c0.865,4.643-0.936,8.956-2.524,12.761c-0.154,0.369-0.307,0.735-0.456,1.097c-1.49,3.629-0.985,6.057-0.285,9.416
					c0.115,0.551,0.233,1.12,0.347,1.715c0.605,3.171,1.426,6.105,3.322,6.104c0.572,0,1.26-0.238,2.045-0.708
					c4.419-2.647,1.694-10.491,0.065-15.179c-0.212-0.612-0.408-1.175-0.57-1.674c-2.195-6.75,2.818-9.566,6.846-11.828
					c0.626-0.352,11.171-5.092,14.357-6.108c-0.021-0.894-0.766-1.309-2.367-1.995c-0.417-0.179-0.849-0.364-1.251-0.577
					c-0.343-0.181-0.539-0.554-0.493-0.939c0.08-0.676,0.133-1.345,0.182-1.973c0.19-2.407,0.354-4.485,2.094-4.485
					c0.857,0,1.765,0.625,3.132,2.157c1.133,1.269,1.814,2.45,2.415,3.492c0.792,1.374,1.477,2.561,3.032,3.665
					c1.376,0.977,2.836,1.714,4.247,2.427c1.865,0.942,3.793,1.916,5.561,3.449c2.669,2.313,4.779,4.996,6.277,7.982
					c2.143,0.012,4.754-0.298,7.488-0.628c2.978-0.359,6.058-0.731,8.978-0.731c4.125,0,7.18,0.785,9.34,2.4
					c1.101,0.822,1.861,1.741,2.532,2.551c1.051,1.268,1.88,2.269,3.701,2.721c0.578,0.143,1.331,0.213,2.302,0.213
					c1.027,0,2.132-0.08,3.108-0.15c0.486-0.035,0.944-0.068,1.355-0.089c3.418-0.175,7.162-1.393,10.784-2.571
					c0.869-0.283,1.716-0.558,2.546-0.816c-0.132-0.052-0.25-0.106-0.353-0.161c-0.415-0.097-1.375-0.354-3.865-1.036
					c-0.487-0.133-0.839-0.23-0.905-0.246c-0.434-0.11-0.737-0.512-0.714-0.959c0.182-3.547,5.951-3.957,10.275-3.957
					c1.502,0,2.938,0.056,4.093,0.101c0.767,0.03,1.411,0.055,1.868,0.055c1.424,0,2.959-0.076,4.585-0.156
					c1.743-0.086,3.545-0.175,5.329-0.175c4.089,0,7.045,0.502,9.304,1.579c0.352,0.168,0.564,0.537,0.53,0.925
					c-0.033,0.389-0.303,0.716-0.678,0.822c-1.529,0.433-2.943,1.096-4.31,1.737c-2.244,1.052-4.562,2.14-7.398,2.215
					c0.671,1.212,2.24,3.298,2.66,3.737c1.417,1.074,3.36,1.62,5.24,2.149c0.536,0.151,1.063,0.299,1.57,0.457
					c0.522,0.163,1.082,0.325,1.663,0.493c4.959,1.438,12.453,3.612,10.93,11.062c-0.436,2.128-1.679,3.143-2.776,4.038
					c-0.74,0.604-1.438,1.174-1.906,2.078c-0.856,1.652-0.642,2.159-0.591,2.243c0.049,0.081,0.297,0.344,1.431,0.344
					c0.902,0,2.026-0.17,3.018-0.319c0.522-0.079,1.078-0.187,1.655-0.299c1.351-0.262,2.882-0.56,4.378-0.56
					c1.563,0,2.859,0.321,3.96,0.982c1.423,0.854,2.236,1.913,2.417,3.149c0.361,2.467-1.912,4.956-3.916,7.151
					c-0.417,0.457-0.826,0.904-1.197,1.336c-2.422,2.822-2.314,4.057-2.1,6.517c0.085,0.973,0.181,2.076,0.148,3.478
					c-0.117,4.94-2.491,5.709-4.788,6.453c-1.037,0.336-2.109,0.683-3.097,1.443c-3.041,2.337-3.353,5.183-3.08,7.159
					c0.543,3.929,3.903,8.072,7.816,9.638c0.337,0.135,0.566,0.453,0.587,0.816c0.596,10.31-7.679,13.392-14.98,16.112
					c-2.887,1.075-5.873,2.187-8.24,3.682c-0.556,0.363-4.626,4.238-5.356,5.043c-0.157,0.296-0.469,0.498-0.828,0.498
					c-0.002,0-0.007,0-0.011,0c-0.025,0-0.051-0.001-0.076-0.003c0,0-0.001,0-0.001,0l0,0c-0.002,0-0.004,0-0.005-0.001
					c-1.316-0.106-2.493-0.552-3.632-0.984c-0.969-0.368-1.884-0.715-2.839-0.842c-1.275-0.17-2.662-0.125-3.882-0.048
					c-0.57,0.036-1.109,0.07-1.653,0.07c-1.622,0-3.442-0.275-5.754-2.272c-0.013-0.011-0.068-0.063-0.157-0.148
					c-2.934-2.821-4.624-3.977-5.375-4.322c0.041,1.524,1.031,2.873,2.074,4.295c0.667,0.908,1.356,1.847,1.817,2.868
					c0.916,2.032,1.275,4.195,1.622,6.287c0.074,0.447,0.148,0.893,0.228,1.337c0.953,5.333,2.001,9.203,6.837,10.421
					c0.239,0.06,0.489,0.118,0.743,0.178c1.785,0.419,3.808,0.894,4.263,2.408c0.282,0.938-0.12,1.965-1.228,3.139
					c-1.348,1.43-3.192,1.729-4.819,1.993c-1.079,0.175-2.1,0.341-2.919,0.793c-2.059,1.134-1.992,1.945-1.882,3.287
					c0.093,1.135,0.209,2.548-0.955,4.145c-0.735,1.005-1.833,1.005-2.247,1.005c-0.129,0-0.259-0.004-0.388-0.008
					c-0.108-0.004-0.215-0.007-0.321-0.007c-0.278,0-0.437,0.027-0.503,0.086c-0.908,0.819-1.488,1.819-2.101,2.878
					c-0.638,1.1-1.297,2.238-2.37,3.283C123.994,169.659,120.144,172.071,117.086,172.071z M113.852,167.815
					c0.398,0,0.766,0.255,0.892,0.652c0.382,1.196,1.104,1.729,2.342,1.729c2.395,0,5.811-2.087,7.356-3.593
					c0.888-0.866,1.455-1.844,2.056-2.88c0.659-1.138,1.341-2.315,2.469-3.331c0.558-0.503,1.232-0.568,1.757-0.568
					c0.124,0,0.251,0.004,0.38,0.007c0.109,0.004,0.22,0.007,0.329,0.007c0.52,0,0.633-0.098,0.733-0.236
					c0.753-1.032,0.682-1.891,0.6-2.885c-0.123-1.499-0.276-3.364,2.846-5.083c1.104-0.608,2.333-0.808,3.522-1.001
					c1.463-0.238,2.844-0.462,3.757-1.43c0.714-0.757,0.833-1.19,0.796-1.313c-0.143-0.477-2.003-0.913-2.896-1.123
					c-0.264-0.062-0.524-0.123-0.772-0.186c-6.384-1.608-7.404-7.319-8.224-11.909c-0.081-0.452-0.156-0.906-0.231-1.36
					c-0.342-2.064-0.666-4.014-1.481-5.823c-0.38-0.842-0.982-1.662-1.619-2.53c-1.235-1.682-2.634-3.588-2.42-5.975
					c0.078-0.865,0.659-1.423,1.481-1.423c0.467,0,1.886,0,7.049,4.964l0.099,0.095c2.295,1.982,3.836,1.876,6.046,1.735
					c0.637-0.041,1.296-0.083,2.035-0.083c0.767,0,1.491,0.047,2.214,0.143c1.17,0.156,2.23,0.558,3.256,0.947
					c0.904,0.344,1.766,0.671,2.651,0.812c0.422-0.452,1.137-1.136,2.32-2.264c1.006-0.959,2.769-2.616,3.272-2.934
					c2.532-1.598,5.61-2.745,8.586-3.854c7.183-2.676,13.976-5.207,13.786-13.673c-4.306-1.972-7.8-6.453-8.412-10.879
					c-0.482-3.489,0.866-6.65,3.795-8.902c1.245-0.957,2.529-1.373,3.661-1.74c2.125-0.688,3.406-1.103,3.491-4.714
					c0.031-1.298-0.06-2.346-0.142-3.271c-0.227-2.601-0.391-4.481,2.546-7.901c0.383-0.446,0.804-0.908,1.234-1.379
					c1.724-1.888,3.678-4.028,3.445-5.616c-0.097-0.662-0.596-1.255-1.526-1.813c-0.802-0.481-1.782-0.715-2.996-0.715
					c-1.316,0-2.691,0.267-4.021,0.526c-0.603,0.117-1.186,0.23-1.733,0.313c-1.057,0.159-2.254,0.34-3.297,0.34
					c-0.563,0-2.276,0-3.032-1.244c-0.768-1.262-0.066-2.933,0.528-4.08c0.647-1.248,1.57-2.002,2.386-2.667
					c1.018-0.831,1.823-1.488,2.125-2.962c1.091-5.332-3.5-7.112-9.615-8.886c-0.593-0.172-1.165-0.338-1.698-0.504
					c-0.491-0.153-1.001-0.296-1.52-0.442c-1.971-0.554-4.204-1.183-5.912-2.496c-0.046-0.036-4.155-4.636-3.588-6.3
					c0.165-0.483,0.597-0.783,1.13-0.783c0.018,0,0.067,0.002,0.085,0.002c2.83,0.165,5.09-0.897,7.495-2.025
					c0.662-0.311,1.335-0.626,2.032-0.923c-1.642-0.386-3.633-0.57-6.082-0.57c-1.738,0-3.517,0.088-5.237,0.173
					c-1.649,0.081-3.207,0.158-4.67,0.158c-0.482,0-1.151-0.026-1.948-0.057c-1.139-0.044-2.555-0.099-4.02-0.099
					c-5.459,0-7.407,0.811-8.075,1.504c1.079,0.296,3.353,0.918,3.762,1.009c0.193,0.021,0.367,0.099,0.505,0.216
					c0.252,0.099,0.861,0.279,1.279,0.403c1.623,0.48,2.059,0.609,2.165,1.286c0.076,0.479-0.228,0.936-0.698,1.054
					c-1.688,0.423-3.463,1.001-5.343,1.612c-3.737,1.216-7.601,2.473-11.267,2.661c-0.4,0.02-0.845,0.053-1.317,0.087
					c-1.007,0.073-2.148,0.155-3.243,0.155c-1.124,0-2.025-0.088-2.753-0.268c-2.42-0.6-3.576-1.995-4.694-3.345
					c-0.634-0.765-1.289-1.557-2.211-2.246c-1.824-1.364-4.513-2.027-8.217-2.027c-2.808,0-5.831,0.365-8.754,0.717
					c-3.048,0.368-5.912,0.714-8.336,0.629c-0.351-0.012-0.665-0.219-0.815-0.536c-1.398-2.96-3.438-5.615-6.065-7.891
					c-1.592-1.38-3.334-2.261-5.179-3.192c-1.473-0.744-2.996-1.513-4.487-2.571c-1.89-1.341-2.707-2.757-3.571-4.257
					c-0.582-1.01-1.184-2.055-2.189-3.18c-0.886-0.992-1.37-1.342-1.596-1.466c-0.19,0.492-0.289,1.747-0.364,2.694
					c-0.035,0.444-0.071,0.907-0.118,1.38c0.177,0.079,0.361,0.158,0.55,0.239c1.615,0.693,4.056,1.738,3.392,4.693
					c0,0.002-0.001,0.004-0.001,0.005c-0.105,0.464-0.533,0.769-1.001,0.727c-1.643,0.453-12.766,5.229-14.201,6.035
					c-4.652,2.613-7.582,4.694-5.981,9.615c0.159,0.488,0.35,1.039,0.558,1.638c1.815,5.226,4.854,13.971-0.873,17.401
					c-1.079,0.647-2.091,0.975-3.007,0.975c-3.708,0-4.655-4.962-5.164-7.627c-0.112-0.584-0.228-1.143-0.34-1.684
					c-0.709-3.407-1.322-6.349,0.386-10.51c0.15-0.366,0.304-0.735,0.46-1.107c1.56-3.738,3.173-7.603,2.411-11.696
					c-0.171-0.916-0.364-1.474-0.504-1.881c-0.212-0.613-0.293-1.044-0.211-1.473c-1.951,1.696-3.723,3.238-3.976,3.458
					c-6.603,6.892-9.692,14.589-12.961,22.738c-0.699,1.742-1.416,3.528-2.18,5.341c3.322,0.954,8.806,7.665,9.286,8.806
					c0.434,1.026,3.125,9.442,1.156,12.411c-0.553,0.835-1.411,1.223-2.467,1.096c0.299,1.799,1.493,5.61,1.954,6.236
					c1.873,2.085,4.543,2.852,7.37,3.664l0.398,0.114c2.795,0.806,5.809,1.143,8.998,1.5c4.882,0.546,9.931,1.111,14.143,3.509
					c1.962,1.117,3.123,2.878,4.245,4.582c0.976,1.481,1.898,2.88,3.27,3.722c0.937,0.573,2.418,0.864,4.403,0.864
					c2.904,0,6.309-0.6,9.314-1.13c1.733-0.306,3.231-0.57,4.414-0.68c2.366-0.219,4.042,0.372,5.012,1.751
					c2.203,3.133-0.107,9.554-2.145,15.219c-1.063,2.954-2.067,5.744-2.1,7.243c-0.143,6.289,1.467,12.289,5.068,18.883
					c0.219,0.401,0.117,0.902-0.243,1.186c-0.488,0.384-1.005,0.744-1.505,1.093c-2.229,1.555-3.57,2.607-3.06,4.568
					c0.439,1.684,1.704,3.038,3.043,4.472c0.776,0.831,1.579,1.691,2.215,2.629c1.325,1.956,2.134,4.072,2.917,6.12
					c0.266,0.696,0.534,1.398,0.825,2.101c3.448,8.338,6.028,13.401,12.768,13.401c1.528,0,3.277-0.275,5.197-0.818
					C113.682,167.826,113.767,167.815,113.852,167.815z"/>
			</g>
			<g>
				<path fill="#010101" d="M91.063,63.004c-0.065,0-0.13-0.001-0.196-0.002c-6.522-0.096-11.169-4.946-11.364-5.152
					c-0.355-0.376-0.337-0.97,0.039-1.325c0.376-0.355,0.968-0.338,1.324,0.038l0,0c0.043,0.045,4.322,4.489,10.045,4.565
					c0.049,0.001,0.099,0.001,0.149,0.001c3.398,0,6.662-1.542,9.705-4.585c0.366-0.366,0.959-0.366,1.325,0
					c0.366,0.366,0.366,0.959,0,1.325C98.683,61.277,94.974,63.004,91.063,63.004z"/>
			</g>
			<g>
				<path fill="#010101" d="M131.725,63.004c-0.065,0-0.13-0.001-0.196-0.002c-6.522-0.096-11.169-4.946-11.364-5.152
					c-0.355-0.376-0.337-0.97,0.039-1.325c0.376-0.355,0.968-0.338,1.324,0.038l0,0c0.043,0.045,4.322,4.489,10.045,4.565
					c0.049,0.001,0.099,0.001,0.149,0.001c3.398,0,6.662-1.542,9.705-4.585c0.366-0.366,0.959-0.366,1.325,0
					c0.366,0.366,0.366,0.959,0,1.325C139.346,61.277,135.636,63.004,131.725,63.004z"/>
			</g>
			<g>
				<path fill="#010101" d="M109.293,71.201c-0.037,0-0.075,0-0.112-0.001c-3.685-0.054-6.305-2.788-6.415-2.904
					c-0.355-0.377-0.337-0.97,0.039-1.325c0.376-0.355,0.968-0.338,1.323,0.038c0.039,0.04,2.22,2.283,5.095,2.317
					c1.721,0.013,3.404-0.765,4.974-2.336c0.366-0.366,0.959-0.366,1.325,0c0.366,0.366,0.366,0.959,0,1.325
					C113.609,70.231,111.513,71.201,109.293,71.201z"/>
			</g>
			<g>
				<path fill="#010101" d="M119.776,83.308c-0.248,0-0.497-0.099-0.681-0.293l0,0c-0.043-0.045-4.322-4.489-10.045-4.565
					c-3.433-0.037-6.766,1.496-9.854,4.584c-0.366,0.366-0.959,0.366-1.325,0c-0.366-0.366-0.366-0.959,0-1.325
					c3.407-3.407,7.117-5.134,11.028-5.134c0.065,0,0.13,0.001,0.196,0.002c6.522,0.096,11.169,4.946,11.364,5.152
					c0.355,0.376,0.337,0.97-0.039,1.325C120.238,83.223,120.007,83.308,119.776,83.308z"/>
			</g>
		</g>
	</g>
</g>
<g id="Layer_5" display="none">
</g>
<g id="Layer_6">
</g>
<g id="Layer_8" display="none">
</g>
<g id="Layer_7">
</g>
<g id="Layer_4">
	<g>
		
			<polygon fill="#FFFFFF" stroke="#FFFFFF" stroke-width="1.1939" stroke-linecap="round" stroke-linejoin="round" stroke-miterlimit="10" points="
			114.641,98.739 116.392,100.084 118.493,99.404 117.755,101.485 119.051,103.273 116.843,103.214 115.544,104.999 
			114.917,102.881 112.818,102.197 114.639,100.947 		"/>
		
			<polygon fill="#FFFFFF" stroke="#FFFFFF" stroke-width="1.1939" stroke-linecap="round" stroke-linejoin="round" stroke-miterlimit="10" points="
			117.307,88.272 119.059,89.617 121.159,88.937 120.421,91.018 121.717,92.806 119.51,92.747 118.21,94.532 117.584,92.414 
			115.485,91.73 117.305,90.48 		"/>
		
			<polygon fill="#FFFFFF" stroke="#FFFFFF" stroke-width="1.1939" stroke-linecap="round" stroke-linejoin="round" stroke-miterlimit="10" points="
			122.631,80.163 124.382,81.508 126.483,80.828 125.745,82.909 127.041,84.697 124.834,84.638 123.534,86.423 122.908,84.306 
			120.808,83.621 122.629,82.371 		"/>
		
			<polygon fill="#FFFFFF" stroke="#FFFFFF" stroke-width="1.1939" stroke-linecap="round" stroke-linejoin="round" stroke-miterlimit="10" points="
			130.346,73.871 132.097,75.216 134.198,74.536 133.46,76.617 134.756,78.405 132.549,78.346 131.249,80.131 130.623,78.014 
			128.523,77.329 130.344,76.079 		"/>
		
			<polygon fill="#FFFFFF" stroke="#FFFFFF" stroke-width="1.1939" stroke-linecap="round" stroke-linejoin="round" stroke-miterlimit="10" points="
			139.318,69.456 141.069,70.801 143.17,70.121 142.431,72.202 143.727,73.99 141.52,73.931 140.22,75.716 139.594,73.599 
			137.495,72.914 139.315,71.664 		"/>
		
			<polygon fill="#FFFFFF" stroke="#FFFFFF" stroke-width="1.1939" stroke-linecap="round" stroke-linejoin="round" stroke-miterlimit="10" points="
			149.215,67.937 150.966,69.282 153.067,68.602 152.329,70.683 153.625,72.471 151.418,72.412 150.118,74.197 149.492,72.08 
			147.392,71.395 149.213,70.145 		"/>
		
			<polygon fill="#FFFFFF" stroke="#FFFFFF" stroke-width="1.1939" stroke-linecap="round" stroke-linejoin="round" stroke-miterlimit="10" points="
			159.659,69.894 161.41,71.239 163.511,70.559 162.773,72.64 164.069,74.428 161.862,74.369 160.562,76.154 159.936,74.037 
			157.836,73.352 159.657,72.102 		"/>
		
			<polygon fill="#FFFFFF" stroke="#FFFFFF" stroke-width="1.1939" stroke-linecap="round" stroke-linejoin="round" stroke-miterlimit="10" points="
			168.827,74.198 170.578,75.543 172.678,74.863 171.94,76.944 173.236,78.732 171.029,78.673 169.729,80.458 169.103,78.341 
			167.004,77.656 168.824,76.406 		"/>
	</g>
</g>
<g id="Layer_9">
</g>
<g id="Layer_10">
</g>
<g id="Layer_11">
</g>
</svg>
