<?xml version="1.0" encoding="utf-8"?>
<!-- Generator: Adobe Illustrator 17.0.0, SVG Export Plug-In . SVG Version: 6.00 Build 0)  -->
<!DOCTYPE svg PUBLIC "-//W3C//DTD SVG 1.1//EN" "http://www.w3.org/Graphics/SVG/1.1/DTD/svg11.dtd">
<svg version="1.1" id="Layer_1" xmlns="http://www.w3.org/2000/svg" xmlns:xlink="http://www.w3.org/1999/xlink" x="0px" y="0px"
	 width="118px" height="96.446px" viewBox="0 0 118 96.446" enable-background="new 0 0 118 96.446" xml:space="preserve">
<g id="Layer_1_1_">
</g>
<g id="Layer_2" display="none">
</g>
<g id="Layer_5" display="none">
</g>
<g id="Layer_6">
</g>
<g id="Layer_8" display="none">
</g>
<g id="Layer_7">
</g>
<g id="Layer_9">
</g>
<g id="Layer_10">
</g>
<g>
	<g id="Layer_3">
		<g>
			<g>
				<g>
					<g>
						<defs>
							<path id="SVGID_1_" d="M80.524,20.691c-1.507,0.001-7.236-0.563-7.337,1.396c0.077,0.018,2.359,0.652,2.361,0.629
								c-0.01,0.096,1.483,0.445,1.497,0.536c-2.441,0.612-5.312,1.904-7.875,2.035c-0.951,0.049-2.433,0.233-3.374,0
								c-1.638-0.406-1.871-1.648-3.148-2.603c-2.927-2.189-8.833-0.292-12.383-0.415c-0.729-1.543-1.791-2.866-3.019-3.93
								c-1.437-1.245-3.104-1.68-4.667-2.789c-1.419-1.007-1.461-2.126-2.686-3.497c-1.824-2.042-1.575-0.168-1.811,1.816
								c0.89,0.47,2.228,0.686,1.932,2.001c0.051-0.228-6.409,2.578-7.068,2.948c-2.146,1.205-3.976,2.366-3.074,5.138
								c0.71,2.183,2.773,6.968,0.046,8.601c-2.358,1.412-2.924-1.207-3.244-2.888c-0.387-2.027-0.894-3.42-0.003-5.59
								c0.802-1.955,1.83-4.09,1.402-6.389c-0.285-1.53-0.694-1.132,0.15-2.235c0.629-0.823,1.988-0.727,1.442-1.951
								c0,0-4.592,3.992-4.592,3.993c-4.141,4.313-5.414,9.167-7.731,14.472c0.649-1.486,4.575,3.122,4.821,3.706
								c0.363,0.861,2.031,6.765-0.574,5.743c-0.482-0.189,0.613,3.456,0.954,3.836c1.037,1.155,2.499,1.535,3.94,1.951
								c3.496,1.008,7.796,0.539,10.993,2.36c1.644,0.936,2.058,3.032,3.589,3.972c1.951,1.194,6.812-0.188,8.966-0.389
								c5.316-0.495-0.062,8.468-0.123,11.147c-0.077,3.386,0.877,6.333,2.484,9.276c-1.169,0.921-2.76,1.584-2.345,3.179
								c0.373,1.43,1.789,2.369,2.583,3.542c0.813,1.201,1.198,2.524,1.75,3.86c1.9,4.596,3.492,7.889,9.148,6.292
								c0.776,2.431,4.266,0.388,5.39-0.708c0.96-0.936,1.201-2.104,2.156-2.965c0.418-0.377,1.179,0.124,1.596-0.447
								c1.086-1.49-0.646-2.506,1.506-3.691c1.104-0.608,2.668-0.264,3.598-1.25c1.39-1.473-0.393-1.698-1.594-2
								c-2.684-0.676-3.182-2.96-3.609-5.351c-0.214-1.197-0.347-2.427-0.854-3.548c-0.575-1.274-2.033-2.35-1.898-3.851
								c0.108-1.207,3.315,1.973,3.387,2.036c1.872,1.617,2.91,0.671,5.176,0.973c1.073,0.143,1.999,0.787,3.081,0.873
								c-0.07-0.006,2.387-2.37,2.73-2.586c4.101-2.589,11.293-2.622,10.92-9.081c-3.22-1.288-5.955-6.073-2.376-8.824
								c1.63-1.252,3.532-0.388,3.604-3.439c0.057-2.395-0.716-3.023,1.044-5.072c1.344-1.566,3.685-3.529,1.402-4.9
								c-1.339-0.804-3.143-0.204-4.491,0c-1.591,0.24-3.484,0.519-2.315-1.738c0.626-1.207,1.894-1.308,2.203-2.814
								c0.723-3.536-3.315-4.268-5.729-5.02c-1.123-0.35-2.469-0.603-3.421-1.335c-0.563-0.433-1.382-1.425-1.537-2.127
								c-0.131-0.599,0.363-0.505,0.766-0.585c0.874-0.174,1.523-0.892,2.411-1.046c0.505-0.087,1.479,0.02,1.669-0.621
								c0.24-0.808-1.152-0.785-1.602-0.824C84.666,20.319,82.597,20.689,80.524,20.691z"/>
						</defs>
						<clipPath id="SVGID_2_">
							<use xlink:href="#SVGID_1_"  overflow="visible"/>
						</clipPath>
						<g clip-path="url(#SVGID_2_)">
							<g>
								<g>
									
										<rect x="-21.706" y="2.184" transform="matrix(0.916 -0.4012 0.4012 0.916 -2.5338 23.0065)" fill="#FFD300" width="150.749" height="30.738"/>
								</g>
							</g>
							<g>
								<g>
									
										<rect x="-9.374" y="30.34" transform="matrix(0.916 -0.4012 0.4012 0.916 -12.7937 30.3192)" fill="#233F89" width="150.749" height="30.738"/>
								</g>
							</g>
							<g>
								<g>
									
										<rect x="2.445" y="57.322" transform="matrix(0.916 -0.4012 0.4012 0.916 -22.6261 37.3278)" fill="#DB2C38" width="150.749" height="30.738"/>
								</g>
							</g>
						</g>
					</g>
				</g>
			</g>
			<g>
				<g>
					<g>
						<path fill="#010101" stroke="#010101" stroke-width="0.5" stroke-miterlimit="10" d="M61.296,89.899
							c-0.828,0-1.458-0.371-1.814-1.055c-0.857,0.217-1.63,0.323-2.349,0.323c-4.064,0-5.531-3.547-6.949-6.978
							c-0.143-0.345-0.274-0.688-0.405-1.03c-0.373-0.976-0.726-1.899-1.303-2.75c-0.265-0.392-0.61-0.76-0.974-1.15
							c-0.69-0.739-1.404-1.503-1.672-2.53c-0.415-1.593,0.774-2.422,1.822-3.153c0.126-0.088,0.254-0.177,0.379-0.267
							c-1.675-3.171-2.425-6.091-2.355-9.159c0.02-0.865,0.501-2.204,1.06-3.755c0.858-2.385,1.926-5.354,1.138-6.474
							c-0.27-0.384-0.789-0.535-1.584-0.462c-0.53,0.049-1.231,0.173-2.043,0.316c-1.476,0.26-3.149,0.555-4.62,0.555
							c-1.135,0-1.979-0.179-2.58-0.547c-0.828-0.509-1.347-1.295-1.848-2.056c-0.502-0.762-0.976-1.481-1.729-1.909
							c-1.858-1.058-4.184-1.318-6.434-1.57c-1.499-0.168-3.049-0.341-4.462-0.749l-0.191-0.055
							c-1.417-0.407-2.883-0.828-3.96-2.028c-0.37-0.412-1.424-3.61-1.126-4.278c0.115-0.257,0.408-0.38,0.67-0.277
							c0.148,0.058,0.275,0.087,0.377,0.087c0.118,0,0.186-0.036,0.252-0.135c0.591-0.892-0.298-4.311-0.633-5.103
							c-0.255-0.55-3.062-3.725-3.971-3.725c-0.009-0.008-0.015,0.001-0.023,0.023c0,0.001,0,0.001-0.001,0.002
							c-0.1,0.227-0.364,0.331-0.591,0.232s-0.331-0.364-0.232-0.591l0,0c0.504-1.155,0.963-2.298,1.407-3.403
							c1.603-3.994,3.116-7.767,6.411-11.2l0.01,0.01c0.116-0.122,0.334-0.31,0.737-0.661l3.874-3.369
							c0.108-0.093,0.253-0.13,0.392-0.1s0.255,0.126,0.313,0.256c0.518,1.162-0.307,1.62-0.8,1.894
							c-0.259,0.144-0.528,0.293-0.696,0.513c-0.437,0.572-0.437,0.572-0.34,0.85c0.072,0.209,0.182,0.526,0.276,1.031
							c0.415,2.225-0.449,4.292-1.21,6.116c-0.074,0.177-0.147,0.352-0.219,0.526c-0.714,1.739-0.472,2.903-0.137,4.513
							c0.055,0.264,0.112,0.537,0.166,0.822c0.29,1.52,0.683,2.926,1.592,2.926c0.274,0,0.604-0.114,0.98-0.339
							c2.118-1.269,0.812-5.028,0.031-7.275c-0.102-0.293-0.196-0.563-0.273-0.802c-1.052-3.235,1.351-4.585,3.281-5.669
							c0.3-0.169,5.354-2.441,6.881-2.927c-0.01-0.428-0.367-0.627-1.134-0.956c-0.2-0.086-0.407-0.174-0.6-0.277
							c-0.164-0.087-0.258-0.266-0.236-0.45c0.038-0.324,0.064-0.645,0.087-0.946c0.091-1.154,0.17-2.15,1.004-2.15
							c0.411,0,0.846,0.3,1.501,1.034c0.543,0.608,0.869,1.174,1.157,1.674c0.38,0.659,0.708,1.227,1.453,1.757
							c0.659,0.468,1.359,0.821,2.036,1.163c0.894,0.451,1.818,0.918,2.665,1.653c1.279,1.109,2.29,2.395,3.008,3.826
							c1.027,0.006,2.279-0.143,3.589-0.301c1.427-0.172,2.904-0.35,4.303-0.35c1.977,0,3.441,0.376,4.477,1.15
							c0.528,0.394,0.892,0.834,1.214,1.223c0.504,0.608,0.901,1.087,1.774,1.304c0.277,0.069,0.638,0.102,1.103,0.102
							c0.492,0,1.022-0.038,1.49-0.072c0.233-0.017,0.452-0.033,0.649-0.043c1.638-0.084,3.433-0.668,5.169-1.232
							c0.417-0.136,0.822-0.267,1.22-0.391c-0.063-0.025-0.12-0.051-0.169-0.077c-0.199-0.046-0.659-0.17-1.852-0.497
							c-0.233-0.064-0.402-0.11-0.434-0.118c-0.208-0.053-0.353-0.245-0.342-0.46c0.087-1.7,2.852-1.897,4.925-1.897
							c0.72,0,1.408,0.027,1.962,0.048c0.368,0.014,0.676,0.026,0.895,0.026c0.682,0,1.418-0.036,2.198-0.075
							c0.835-0.041,1.699-0.084,2.554-0.084c1.96,0,3.377,0.241,4.459,0.757c0.169,0.081,0.27,0.257,0.254,0.443
							s-0.145,0.343-0.325,0.394c-0.733,0.208-1.411,0.525-2.066,0.833c-1.076,0.504-2.186,1.026-3.546,1.062
							c0.322,0.581,1.074,1.581,1.275,1.791c0.679,0.515,1.61,0.776,2.511,1.03c0.257,0.072,0.509,0.143,0.752,0.219
							c0.25,0.078,0.519,0.156,0.797,0.236c2.377,0.689,5.969,1.731,5.239,5.302c-0.209,1.02-0.805,1.506-1.33,1.935
							c-0.355,0.289-0.689,0.563-0.914,0.996c-0.41,0.792-0.308,1.035-0.283,1.075c0.023,0.039,0.142,0.165,0.686,0.165
							c0.432,0,0.971-0.081,1.446-0.153c0.25-0.038,0.517-0.09,0.793-0.143c0.648-0.126,1.381-0.268,2.098-0.268
							c0.749,0,1.37,0.154,1.898,0.471c0.682,0.409,1.072,0.917,1.158,1.509c0.173,1.182-0.916,2.375-1.877,3.427
							c-0.2,0.219-0.396,0.433-0.574,0.64c-1.161,1.353-1.109,1.944-1.007,3.123c0.041,0.466,0.087,0.995,0.071,1.667
							c-0.056,2.368-1.194,2.736-2.295,3.093c-0.497,0.161-1.011,0.327-1.484,0.692c-1.457,1.12-1.607,2.484-1.476,3.431
							c0.26,1.883,1.871,3.869,3.746,4.619c0.162,0.065,0.271,0.217,0.281,0.391c0.286,4.941-3.68,6.419-7.18,7.722
							c-1.384,0.515-2.815,1.048-3.949,1.765c-0.266,0.174-2.217,2.031-2.567,2.417c-0.075,0.142-0.225,0.239-0.397,0.239
							c-0.001,0-0.003,0-0.005,0c-0.012,0-0.024,0-0.036-0.001l0,0l0,0c-0.001,0-0.002,0-0.002,0
							c-0.631-0.051-1.195-0.265-1.741-0.472c-0.464-0.176-0.903-0.343-1.361-0.404c-0.611-0.081-1.276-0.06-1.861-0.023
							c-0.273,0.017-0.532,0.034-0.792,0.034c-0.777,0-1.65-0.132-2.758-1.089c-0.006-0.005-0.033-0.03-0.075-0.071
							c-1.406-1.352-2.216-1.906-2.576-2.071c0.02,0.73,0.494,1.377,0.994,2.059c0.32,0.435,0.65,0.885,0.871,1.375
							c0.439,0.974,0.611,2.011,0.777,3.013c0.035,0.214,0.071,0.428,0.109,0.641c0.457,2.556,0.959,4.411,3.277,4.995
							c0.115,0.029,0.234,0.057,0.356,0.085c0.856,0.201,1.825,0.428,2.043,1.154c0.135,0.45-0.058,0.942-0.589,1.504
							c-0.646,0.685-1.53,0.829-2.31,0.955c-0.517,0.084-1.006,0.163-1.399,0.38c-0.987,0.544-0.955,0.932-0.902,1.575
							c0.045,0.544,0.1,1.221-0.458,1.987c-0.352,0.482-0.879,0.482-1.077,0.482c-0.062,0-0.124-0.002-0.186-0.004
							c-0.052-0.002-0.103-0.003-0.154-0.003c-0.133,0-0.209,0.013-0.241,0.041c-0.435,0.393-0.713,0.872-1.007,1.379
							c-0.306,0.527-0.622,1.073-1.136,1.573C64.607,88.743,62.761,89.899,61.296,89.899z M59.746,87.86
							c0.191,0,0.367,0.122,0.428,0.312c0.183,0.573,0.529,0.829,1.122,0.829c1.148,0,2.785-1,3.526-1.722
							c0.426-0.415,0.697-0.884,0.985-1.38c0.316-0.545,0.643-1.11,1.183-1.596c0.267-0.241,0.59-0.272,0.842-0.272
							c0.059,0,0.12,0.002,0.182,0.003c0.052,0.002,0.105,0.003,0.158,0.003c0.249,0,0.303-0.047,0.351-0.113
							c0.361-0.495,0.327-0.906,0.288-1.383c-0.059-0.718-0.132-1.612,1.364-2.436c0.529-0.291,1.118-0.387,1.688-0.48
							c0.701-0.114,1.363-0.221,1.801-0.685c0.342-0.363,0.399-0.57,0.382-0.629c-0.069-0.229-0.96-0.438-1.388-0.538
							c-0.127-0.03-0.251-0.059-0.37-0.089c-3.06-0.771-3.549-3.508-3.942-5.708c-0.039-0.217-0.075-0.434-0.111-0.652
							c-0.164-0.989-0.319-1.924-0.71-2.791c-0.182-0.404-0.471-0.797-0.776-1.213c-0.592-0.806-1.262-1.72-1.16-2.864
							c0.037-0.415,0.316-0.682,0.71-0.682c0.224,0,0.904,0,3.378,2.379l0.047,0.046c1.1,0.95,1.839,0.899,2.898,0.832
							c0.305-0.02,0.621-0.04,0.975-0.04c0.368,0,0.715,0.023,1.061,0.069c0.561,0.075,1.069,0.267,1.561,0.454
							c0.433,0.165,0.846,0.322,1.271,0.389c0.202-0.217,0.545-0.544,1.112-1.085c0.482-0.46,1.327-1.254,1.568-1.406
							c1.214-0.766,2.689-1.316,4.115-1.847c3.443-1.283,6.698-2.496,6.607-6.553c-2.064-0.945-3.738-3.093-4.032-5.214
							c-0.231-1.672,0.415-3.187,1.819-4.267c0.597-0.459,1.212-0.658,1.755-0.834c1.018-0.33,1.632-0.529,1.673-2.259
							c0.015-0.622-0.029-1.124-0.068-1.568c-0.109-1.247-0.187-2.148,1.22-3.787c0.184-0.214,0.385-0.435,0.591-0.661
							c0.826-0.905,1.763-1.931,1.651-2.692c-0.046-0.317-0.286-0.602-0.731-0.869c-0.384-0.231-0.854-0.343-1.436-0.343
							c-0.631,0-1.29,0.128-1.927,0.252c-0.289,0.056-0.568,0.11-0.831,0.15c-0.507,0.076-1.08,0.163-1.58,0.163
							c-0.27,0-1.091,0-1.453-0.596c-0.368-0.605-0.032-1.406,0.253-1.955c0.31-0.598,0.752-0.96,1.144-1.278
							c0.488-0.398,0.874-0.713,1.018-1.42c0.523-2.556-1.677-3.409-4.608-4.259c-0.284-0.082-0.558-0.162-0.814-0.242
							c-0.235-0.073-0.48-0.142-0.729-0.212c-0.945-0.266-2.015-0.567-2.834-1.196c-0.022-0.017-1.991-2.222-1.72-3.019
							c0.079-0.231,0.286-0.375,0.542-0.375c0.009,0,0.032,0.001,0.041,0.001c1.356,0.079,2.44-0.43,3.592-0.971
							c0.317-0.149,0.64-0.3,0.974-0.442c-0.787-0.185-1.741-0.273-2.915-0.273c-0.833,0-1.686,0.042-2.51,0.083
							c-0.79,0.039-1.537,0.076-2.238,0.076c-0.231,0-0.552-0.012-0.934-0.027c-0.546-0.021-1.225-0.047-1.927-0.047
							c-2.616,0-3.55,0.389-3.87,0.721c0.517,0.142,1.607,0.44,1.803,0.484c0.092,0.01,0.176,0.047,0.242,0.104
							c0.121,0.047,0.413,0.134,0.613,0.193c0.778,0.23,0.987,0.292,1.038,0.616c0.036,0.23-0.109,0.449-0.335,0.505
							c-0.809,0.203-1.66,0.48-2.561,0.773c-1.791,0.583-3.643,1.185-5.4,1.275c-0.192,0.01-0.405,0.025-0.631,0.042
							c-0.483,0.035-1.03,0.074-1.554,0.074c-0.539,0-0.971-0.042-1.319-0.128c-1.16-0.288-1.714-0.956-2.25-1.603
							c-0.304-0.367-0.618-0.746-1.06-1.076c-0.874-0.654-2.163-0.972-3.938-0.972c-1.346,0-2.795,0.175-4.196,0.344
							c-1.461,0.176-2.834,0.342-3.995,0.301c-0.168-0.006-0.319-0.105-0.391-0.257c-0.67-1.419-1.648-2.691-2.907-3.782
							c-0.763-0.661-1.598-1.084-2.482-1.53c-0.706-0.357-1.436-0.725-2.151-1.232c-0.906-0.643-1.297-1.321-1.712-2.04
							c-0.279-0.484-0.567-0.985-1.049-1.524c-0.425-0.475-0.657-0.643-0.765-0.703c-0.091,0.236-0.139,0.837-0.174,1.291
							c-0.017,0.213-0.034,0.435-0.057,0.661c0.085,0.038,0.173,0.076,0.264,0.115c0.774,0.332,1.944,0.833,1.626,2.249
							c0,0.001,0,0.002,0,0.002c-0.05,0.222-0.255,0.369-0.48,0.348c-0.787,0.217-6.119,2.506-6.806,2.892
							c-2.23,1.252-3.634,2.25-2.867,4.608c0.076,0.234,0.168,0.498,0.267,0.785c0.87,2.505,2.326,6.696-0.418,8.34
							c-0.517,0.31-1.002,0.467-1.441,0.467c-1.777,0-2.231-2.378-2.475-3.656c-0.054-0.28-0.109-0.548-0.163-0.807
							c-0.34-1.633-0.634-3.043,0.185-5.037c0.072-0.175,0.146-0.352,0.22-0.531c0.748-1.792,1.521-3.644,1.156-5.606
							c-0.082-0.439-0.174-0.706-0.242-0.902c-0.102-0.294-0.14-0.5-0.101-0.706c-0.935,0.813-1.784,1.552-1.906,1.657
							c-3.165,3.303-4.645,6.992-6.212,10.898c-0.335,0.835-0.679,1.691-1.045,2.56c1.592,0.457,4.221,3.674,4.451,4.221
							c0.208,0.492,1.498,4.525,0.554,5.948c-0.265,0.4-0.676,0.586-1.182,0.525c0.143,0.862,0.716,2.689,0.937,2.989
							c0.898,0.999,2.177,1.367,3.532,1.756l0.191,0.055c1.34,0.386,2.784,0.548,4.313,0.719c2.34,0.262,4.76,0.532,6.779,1.682
							c0.94,0.535,1.497,1.379,2.035,2.196c0.468,0.71,0.91,1.38,1.567,1.784c0.449,0.275,1.159,0.414,2.11,0.414
							c1.392,0,3.024-0.288,4.464-0.542c0.831-0.147,1.549-0.273,2.116-0.326c1.134-0.105,1.937,0.178,2.402,0.839
							c1.056,1.502-0.051,4.579-1.028,7.294c-0.509,1.416-0.991,2.753-1.006,3.471c-0.069,3.014,0.703,5.89,2.429,9.05
							c0.105,0.192,0.056,0.432-0.116,0.568c-0.234,0.184-0.482,0.357-0.721,0.524c-1.068,0.745-1.711,1.249-1.467,2.189
							c0.21,0.807,0.817,1.456,1.458,2.143c0.372,0.398,0.757,0.81,1.062,1.26c0.635,0.937,1.023,1.952,1.398,2.933
							c0.127,0.334,0.256,0.67,0.395,1.007c1.653,3.996,2.889,6.423,6.119,6.423c0.732,0,1.571-0.132,2.491-0.392
							C59.664,87.865,59.705,87.86,59.746,87.86z"/>
					</g>
				</g>
				<g>
					<g>
						<path fill="#010101" stroke="#010101" stroke-width="0.5" stroke-miterlimit="10" d="M48.823,37.625
							c-0.031,0-0.062,0-0.094-0.001c-3.126-0.046-5.353-2.371-5.447-2.469c-0.17-0.18-0.162-0.465,0.019-0.635
							c0.18-0.17,0.464-0.162,0.635,0.018l0,0c0.021,0.022,2.071,2.152,4.814,2.188c0.023,0,0.047,0,0.071,0
							c1.629,0,3.193-0.739,4.651-2.198c0.175-0.175,0.46-0.175,0.635,0s0.175,0.46,0,0.635
							C52.475,36.798,50.698,37.625,48.823,37.625z"/>
					</g>
				</g>
				<g>
					<g>
						<path fill="#010101" stroke="#010101" stroke-width="0.5" stroke-miterlimit="10" d="M68.312,37.625
							c-0.031,0-0.062,0-0.094-0.001c-3.126-0.046-5.353-2.371-5.447-2.469c-0.17-0.18-0.162-0.465,0.019-0.635
							c0.18-0.17,0.464-0.162,0.635,0.018l0,0c0.021,0.022,2.071,2.152,4.814,2.188c0.023,0,0.047,0,0.071,0
							c1.629,0,3.193-0.739,4.651-2.198c0.175-0.175,0.46-0.175,0.635,0s0.175,0.46,0,0.635
							C71.965,36.798,70.186,37.625,68.312,37.625z"/>
					</g>
				</g>
				<g>
					<g>
						<path fill="#010101" stroke="#010101" stroke-width="0.5" stroke-miterlimit="10" d="M57.561,41.554c-0.018,0-0.036,0-0.054,0
							c-1.766-0.026-3.022-1.336-3.075-1.392c-0.17-0.181-0.162-0.465,0.019-0.635c0.18-0.17,0.464-0.162,0.634,0.018
							c0.019,0.019,1.064,1.094,2.442,1.111c0.825,0.006,1.631-0.367,2.384-1.12c0.175-0.175,0.46-0.175,0.635,0s0.175,0.46,0,0.635
							C59.629,41.089,58.625,41.554,57.561,41.554z"/>
					</g>
				</g>
				<g>
					<g>
						<path fill="#010101" stroke="#010101" stroke-width="0.5" stroke-miterlimit="10" d="M62.585,47.357
							c-0.119,0-0.238-0.047-0.326-0.14l0,0c-0.021-0.022-2.071-2.152-4.814-2.188c-1.645-0.018-3.243,0.717-4.723,2.197
							c-0.175,0.175-0.46,0.175-0.635,0s-0.175-0.46,0-0.635c1.633-1.633,3.411-2.461,5.286-2.461c0.031,0,0.062,0,0.094,0.001
							c3.126,0.046,5.353,2.371,5.447,2.469c0.17,0.18,0.162,0.465-0.019,0.635C62.806,47.316,62.696,47.357,62.585,47.357z"/>
					</g>
				</g>
			</g>
		</g>
	</g>
	<g id="Layer_4">
		<g>
			<g>
				<polygon fill="#FFFFFF" points="60.124,54.753 60.963,55.397 61.97,55.071 61.616,56.069 62.238,56.926 61.179,56.897 
					60.557,57.753 60.256,56.738 59.25,56.41 60.123,55.811 				"/>
				<path fill="#FFFFFF" d="M60.557,58.039c-0.016,0-0.032-0.001-0.049-0.004c-0.107-0.018-0.195-0.096-0.226-0.201l-0.258-0.871
					l-0.863-0.281c-0.104-0.034-0.179-0.123-0.195-0.231c-0.015-0.108,0.031-0.215,0.121-0.277l0.748-0.514l0.001-0.908
					c0-0.109,0.062-0.208,0.16-0.256c0.098-0.049,0.214-0.037,0.3,0.029l0.72,0.553l0.864-0.28c0.103-0.033,0.217-0.005,0.293,0.073
					c0.076,0.078,0.101,0.192,0.065,0.295l-0.303,0.856l0.533,0.735c0.064,0.088,0.072,0.205,0.022,0.301
					c-0.051,0.096-0.152,0.147-0.261,0.153l-0.908-0.024l-0.534,0.734C60.734,57.996,60.647,58.039,60.557,58.039z M59.89,56.318
					l0.454,0.148c0.09,0.029,0.159,0.101,0.186,0.191l0.136,0.459l0.281-0.387c0.055-0.076,0.139-0.123,0.239-0.117l0.479,0.013
					l-0.281-0.388c-0.055-0.076-0.069-0.175-0.038-0.264l0.16-0.451l-0.456,0.147c-0.088,0.029-0.187,0.012-0.262-0.045l-0.38-0.292
					v0.479c0,0.094-0.046,0.182-0.124,0.235L59.89,56.318z"/>
			</g>
			<g>
				<polygon fill="#FFFFFF" points="61.402,49.736 62.241,50.381 63.248,50.055 62.894,51.052 63.515,51.909 62.458,51.881 
					61.834,52.736 61.534,51.721 60.528,51.393 61.401,50.794 				"/>
				<path fill="#FFFFFF" d="M61.834,53.022c-0.016,0-0.032-0.001-0.049-0.004c-0.107-0.018-0.195-0.096-0.226-0.201l-0.257-0.871
					l-0.863-0.281c-0.104-0.034-0.179-0.123-0.195-0.231c-0.015-0.108,0.031-0.215,0.121-0.277l0.748-0.514l0.001-0.908
					c0-0.109,0.062-0.208,0.16-0.256c0.097-0.048,0.214-0.037,0.3,0.03l0.72,0.553l0.864-0.28c0.104-0.033,0.217-0.005,0.293,0.073
					c0.076,0.078,0.101,0.192,0.065,0.295l-0.303,0.856l0.533,0.735c0.064,0.088,0.072,0.205,0.022,0.301
					c-0.051,0.096-0.154,0.148-0.261,0.153l-0.908-0.024l-0.535,0.734C62.011,52.979,61.925,53.022,61.834,53.022z M61.168,51.301
					l0.454,0.148c0.09,0.029,0.159,0.101,0.186,0.191l0.136,0.459l0.282-0.387c0.055-0.076,0.143-0.124,0.239-0.117l0.478,0.013
					l-0.281-0.387c-0.055-0.076-0.069-0.175-0.038-0.264l0.16-0.451l-0.455,0.147c-0.088,0.029-0.188,0.012-0.262-0.045l-0.38-0.292
					v0.479c0,0.094-0.046,0.182-0.124,0.236L61.168,51.301z"/>
			</g>
			<g>
				<polygon fill="#FFFFFF" points="63.953,45.849 64.793,46.494 65.8,46.168 65.446,47.165 66.067,48.022 65.009,47.994 
					64.386,48.85 64.086,47.835 63.08,47.507 63.952,46.908 				"/>
				<path fill="#FFFFFF" d="M64.386,49.136c-0.016,0-0.032-0.001-0.049-0.004c-0.107-0.018-0.195-0.096-0.226-0.201l-0.257-0.87
					l-0.864-0.282c-0.103-0.034-0.179-0.123-0.194-0.231s0.031-0.215,0.121-0.277l0.749-0.514l0.001-0.908
					c0-0.109,0.062-0.208,0.16-0.256c0.098-0.048,0.213-0.037,0.3,0.03l0.72,0.553l0.864-0.279c0.104-0.033,0.217-0.006,0.293,0.073
					c0.076,0.078,0.101,0.192,0.065,0.295l-0.303,0.856l0.533,0.735c0.064,0.088,0.072,0.205,0.022,0.301
					c-0.051,0.096-0.154,0.153-0.261,0.153l-0.908-0.024l-0.535,0.734C64.563,49.093,64.477,49.136,64.386,49.136z M63.719,47.415
					l0.456,0.149c0.089,0.029,0.159,0.1,0.185,0.191l0.136,0.459l0.282-0.387c0.055-0.076,0.137-0.122,0.239-0.117l0.478,0.013
					l-0.281-0.387c-0.055-0.076-0.069-0.175-0.038-0.264l0.16-0.451l-0.456,0.147c-0.088,0.029-0.187,0.012-0.262-0.045l-0.38-0.291
					v0.478c0,0.094-0.046,0.182-0.124,0.236L63.719,47.415z"/>
			</g>
			<g>
				<polygon fill="#FFFFFF" points="67.651,42.834 68.49,43.478 69.497,43.152 69.144,44.15 69.765,45.007 68.707,44.979 
					68.084,45.834 67.784,44.819 66.777,44.491 67.65,43.892 				"/>
				<path fill="#FFFFFF" d="M68.084,46.12c-0.016,0-0.032-0.001-0.049-0.004c-0.107-0.018-0.195-0.096-0.226-0.201l-0.257-0.87
					l-0.864-0.282c-0.103-0.034-0.179-0.123-0.194-0.231s0.031-0.215,0.121-0.277l0.748-0.514l0.001-0.908
					c0-0.109,0.062-0.208,0.16-0.256s0.213-0.037,0.3,0.03l0.72,0.553l0.864-0.279c0.104-0.033,0.217-0.005,0.293,0.073
					c0.076,0.078,0.101,0.192,0.065,0.295l-0.303,0.856l0.533,0.735c0.064,0.088,0.072,0.205,0.022,0.301
					c-0.051,0.096-0.154,0.152-0.261,0.153l-0.908-0.024l-0.535,0.734C68.261,46.077,68.174,46.12,68.084,46.12z M67.417,44.399
					l0.455,0.149c0.089,0.029,0.159,0.1,0.185,0.191l0.136,0.459l0.282-0.387c0.055-0.076,0.137-0.121,0.239-0.117l0.478,0.013
					l-0.281-0.387c-0.055-0.076-0.069-0.175-0.038-0.264l0.16-0.451l-0.456,0.147c-0.088,0.029-0.188,0.012-0.262-0.045l-0.38-0.291
					v0.478c0,0.094-0.046,0.182-0.124,0.236L67.417,44.399z"/>
			</g>
			<g>
				<polygon fill="#FFFFFF" points="71.951,40.718 72.79,41.362 73.797,41.036 73.443,42.034 74.064,42.891 73.007,42.862 
					72.384,43.718 72.083,42.703 71.077,42.375 71.95,41.776 				"/>
				<path fill="#FFFFFF" d="M72.383,44.004c-0.016,0-0.032-0.001-0.049-0.004c-0.107-0.018-0.195-0.096-0.226-0.201l-0.257-0.87
					l-0.863-0.282c-0.103-0.034-0.179-0.123-0.194-0.231s0.031-0.215,0.121-0.277l0.748-0.514l0.001-0.908
					c0-0.109,0.062-0.208,0.16-0.256c0.097-0.048,0.214-0.037,0.3,0.03l0.72,0.553l0.864-0.279c0.104-0.033,0.217-0.006,0.293,0.073
					c0.076,0.078,0.101,0.193,0.065,0.295l-0.304,0.856l0.533,0.735c0.064,0.088,0.072,0.205,0.022,0.301
					c-0.051,0.096-0.151,0.148-0.261,0.153l-0.908-0.024l-0.535,0.734C72.56,43.961,72.474,44.004,72.383,44.004z M71.717,42.283
					l0.455,0.149c0.089,0.029,0.159,0.101,0.185,0.191l0.136,0.459l0.282-0.387c0.055-0.076,0.144-0.12,0.239-0.117l0.478,0.013
					l-0.281-0.388c-0.055-0.076-0.069-0.175-0.038-0.264l0.16-0.451l-0.455,0.147c-0.088,0.03-0.187,0.012-0.262-0.045l-0.38-0.292
					l-0.001,0.479c0,0.094-0.046,0.182-0.124,0.235L71.717,42.283z"/>
			</g>
			<g>
				<polygon fill="#FFFFFF" points="76.695,39.99 77.534,40.634 78.541,40.308 78.187,41.306 78.808,42.163 77.751,42.134 
					77.127,42.99 76.827,41.975 75.821,41.647 76.694,41.048 				"/>
				<path fill="#FFFFFF" d="M77.128,43.276c-0.016,0-0.032-0.001-0.049-0.004c-0.107-0.018-0.195-0.096-0.226-0.201l-0.257-0.87
					l-0.864-0.282c-0.103-0.034-0.179-0.123-0.194-0.231s0.031-0.215,0.121-0.277l0.749-0.514l0.001-0.908
					c0-0.109,0.062-0.208,0.16-0.256c0.098-0.048,0.215-0.037,0.3,0.03l0.72,0.553l0.864-0.28c0.104-0.033,0.217-0.006,0.293,0.073
					c0.076,0.078,0.101,0.192,0.065,0.295l-0.303,0.856l0.533,0.735c0.064,0.088,0.072,0.205,0.022,0.301
					c-0.051,0.096-0.159,0.152-0.261,0.153l-0.908-0.024l-0.535,0.734C77.304,43.233,77.218,43.276,77.128,43.276z M76.461,41.555
					l0.456,0.149c0.089,0.029,0.159,0.1,0.185,0.191l0.136,0.459l0.282-0.387c0.055-0.076,0.146-0.122,0.239-0.117l0.478,0.013
					l-0.281-0.388c-0.055-0.076-0.069-0.175-0.038-0.264l0.16-0.451l-0.456,0.147c-0.089,0.029-0.188,0.012-0.262-0.045l-0.38-0.291
					v0.478c0,0.094-0.046,0.182-0.124,0.236L76.461,41.555z"/>
			</g>
			<g>
				<polygon fill="#FFFFFF" points="81.7,40.928 82.54,41.572 83.547,41.246 83.193,42.244 83.814,43.101 82.756,43.072 
					82.133,43.928 81.833,42.913 80.827,42.585 81.699,41.986 				"/>
				<path fill="#FFFFFF" d="M82.133,44.214c-0.016,0-0.032-0.001-0.049-0.004c-0.107-0.019-0.195-0.096-0.226-0.201l-0.257-0.87
					l-0.864-0.282c-0.103-0.034-0.179-0.123-0.194-0.231s0.031-0.215,0.121-0.277l0.749-0.514l0.001-0.908
					c0-0.109,0.062-0.208,0.16-0.256s0.213-0.037,0.3,0.03l0.72,0.553l0.864-0.279c0.104-0.033,0.217-0.006,0.293,0.073
					c0.076,0.078,0.101,0.192,0.065,0.295l-0.303,0.856l0.533,0.735c0.064,0.088,0.072,0.205,0.022,0.301
					c-0.051,0.096-0.159,0.155-0.261,0.153l-0.908-0.024l-0.535,0.734C82.31,44.171,82.223,44.214,82.133,44.214z M81.466,42.493
					l0.455,0.149c0.089,0.029,0.159,0.1,0.185,0.191l0.136,0.459l0.282-0.387c0.055-0.076,0.139-0.124,0.239-0.117l0.478,0.013
					l-0.281-0.388c-0.055-0.076-0.069-0.175-0.038-0.263l0.16-0.451l-0.455,0.147c-0.088,0.029-0.187,0.012-0.262-0.045l-0.38-0.291
					v0.478c0,0.094-0.046,0.182-0.124,0.236L81.466,42.493z"/>
			</g>
			<g>
				<polygon fill="#FFFFFF" points="86.094,42.99 86.934,43.635 87.94,43.309 87.586,44.307 88.208,45.164 87.15,45.135 
					86.527,45.991 86.227,44.976 85.221,44.648 86.093,44.049 				"/>
				<path fill="#FFFFFF" d="M86.526,46.277c-0.016,0-0.032-0.001-0.049-0.004c-0.107-0.019-0.195-0.096-0.226-0.201l-0.257-0.871
					l-0.863-0.282c-0.103-0.034-0.179-0.123-0.194-0.231s0.031-0.215,0.121-0.277l0.748-0.514l0.001-0.908
					c0-0.109,0.062-0.208,0.16-0.256c0.097-0.048,0.213-0.037,0.3,0.03l0.72,0.553l0.864-0.28c0.103-0.033,0.217-0.005,0.293,0.073
					c0.076,0.078,0.101,0.193,0.065,0.295l-0.303,0.856l0.533,0.735c0.064,0.088,0.072,0.205,0.022,0.301
					c-0.051,0.096-0.152,0.146-0.261,0.153l-0.908-0.024l-0.535,0.734C86.703,46.234,86.617,46.277,86.526,46.277z M85.86,44.555
					l0.455,0.149c0.089,0.029,0.159,0.101,0.185,0.191l0.136,0.459l0.282-0.387c0.055-0.076,0.145-0.118,0.239-0.117l0.478,0.013
					l-0.281-0.388c-0.055-0.076-0.069-0.175-0.038-0.263l0.16-0.451l-0.455,0.147c-0.088,0.03-0.188,0.012-0.262-0.045l-0.38-0.292
					l-0.001,0.479c0,0.094-0.046,0.182-0.124,0.235L85.86,44.555z"/>
			</g>
		</g>
	</g>
	<g id="Layer_11">
	</g>
</g>
</svg>
