<?xml version="1.0" encoding="utf-8"?>
<!-- Generator: Adobe Illustrator 17.0.0, SVG Export Plug-In . SVG Version: 6.00 Build 0)  -->
<!DOCTYPE svg PUBLIC "-//W3C//DTD SVG 1.1//EN" "http://www.w3.org/Graphics/SVG/1.1/DTD/svg11.dtd">
<svg version="1.1" id="Layer_1" xmlns="http://www.w3.org/2000/svg" xmlns:xlink="http://www.w3.org/1999/xlink" x="0px" y="0px"
	 width="47.333px" height="26px" viewBox="28 39.556 47.333 26" enable-background="new 28 39.556 47.333 26" xml:space="preserve">
<g id="Layer_1_1_">
</g>
<g id="Layer_2" display="none">
</g>
<g id="Layer_5" display="none">
</g>
<g id="Layer_6">
</g>
<g id="Layer_8" display="none">
</g>
<g id="Layer_7">
</g>
<g id="Layer_9">
</g>
<g id="Layer_10">
</g>
<path fill="#231F20" stroke="#231F20" stroke-width="0.75" stroke-linecap="round" stroke-linejoin="round" stroke-miterlimit="10" d="
	M69.907,43.986c0.007-0.013,0.014-0.026,0.02-0.04c0.008-0.018,0.016-0.036,0.023-0.055c0.005-0.015,0.01-0.03,0.013-0.045
	c0.005-0.019,0.008-0.038,0.011-0.057c0.002-0.015,0.004-0.03,0.005-0.045c0.001-0.02,0.001-0.039,0-0.059
	c-0.001-0.015-0.001-0.03-0.003-0.045c-0.002-0.019-0.007-0.038-0.011-0.057c-0.004-0.016-0.007-0.032-0.012-0.048
	c-0.002-0.005-0.002-0.01-0.004-0.015c-0.005-0.013-0.012-0.025-0.017-0.038c-0.007-0.015-0.013-0.03-0.021-0.045
	c-0.01-0.019-0.023-0.037-0.035-0.054c-0.008-0.011-0.015-0.023-0.023-0.033c-0.022-0.026-0.046-0.051-0.072-0.073
	c-0.001-0.001-0.002-0.002-0.003-0.003c0,0,0,0,0,0c-0.027-0.022-0.057-0.042-0.088-0.059c-0.014-0.008-0.028-0.013-0.042-0.019
	c-0.018-0.008-0.035-0.016-0.054-0.022c-0.016-0.005-0.033-0.009-0.05-0.013c-0.017-0.004-0.034-0.008-0.052-0.01
	c-0.017-0.002-0.034-0.003-0.052-0.004c-0.017-0.001-0.035-0.001-0.052,0c-0.018,0.001-0.035,0.003-0.053,0.006
	c-0.01,0.001-0.02,0.001-0.03,0.003l-35.836,7.417c-0.254,0.052-0.439,0.272-0.448,0.531c-0.009,0.259,0.159,0.491,0.409,0.561
	l7.737,2.193l1.195,7.686c0.003,0.018,0.008,0.036,0.012,0.054c0.002,0.008,0.003,0.015,0.005,0.023
	c0.01,0.033,0.023,0.064,0.038,0.094c0.001,0.002,0.002,0.005,0.003,0.007c0.005,0.01,0.012,0.018,0.017,0.028
	c0.007,0.011,0.013,0.022,0.02,0.032c0.009,0.013,0.02,0.026,0.03,0.038c0.006,0.008,0.012,0.016,0.019,0.023
	c0.013,0.014,0.027,0.027,0.042,0.039c0.006,0.005,0.011,0.01,0.016,0.015c0.019,0.015,0.039,0.029,0.06,0.042
	c0.002,0.001,0.003,0.002,0.005,0.004c0.023,0.014,0.047,0.026,0.072,0.036c0.006,0.002,0.012,0.004,0.017,0.006
	c0.019,0.007,0.039,0.014,0.059,0.019c0.002,0.001,0.004,0.001,0.006,0.002c0.012,0.003,0.023,0.004,0.035,0.006
	c0.009,0.002,0.019,0.004,0.028,0.005c0.019,0.002,0.039,0.003,0.058,0.004c0.004,0,0.008,0.001,0.013,0.001
	c0.038,0,0.077-0.005,0.115-0.013c0.005-0.001,0.01-0.002,0.015-0.003c0.011-0.003,0.022-0.007,0.033-0.01
	c0.011-0.003,0.021-0.006,0.031-0.01c0.009-0.003,0.017-0.007,0.026-0.011c0.012-0.005,0.025-0.011,0.037-0.017
	c0.002-0.001,0.004-0.002,0.006-0.003l7.206-3.829l3.979,3.742c0.105,0.098,0.243,0.153,0.385,0.153c0.012,0,0.023,0,0.035-0.001
	c0.155-0.01,0.299-0.083,0.398-0.203l14.668-17.752c0.006-0.007,0.01-0.016,0.015-0.023C69.882,44.025,69.895,44.006,69.907,43.986z
	 M41.82,52.877l-5.874-1.665l29.558-6.118l-18.012,9.283c-0.009,0.004-0.016,0.011-0.024,0.016
	c-0.022,0.013-0.044,0.027-0.064,0.043c-0.013,0.01-0.025,0.021-0.037,0.032c-0.009,0.008-0.018,0.014-0.027,0.023
	c-0.009,0.01-0.016,0.021-0.024,0.032c-0.006,0.007-0.014,0.013-0.019,0.021l-4.032,5.492l-1.042-6.704
	C42.189,53.114,42.032,52.937,41.82,52.877z M44.828,59.808l3-4.086l1.693,1.592L44.828,59.808z M54.7,60.64l-5.984-5.628
	l18.522-9.546L54.7,60.64z"/>
</svg>
