<?xml version="1.0" encoding="utf-8"?>
<!-- Generator: Adobe Illustrator 17.0.0, SVG Export Plug-In . SVG Version: 6.00 Build 0)  -->
<!DOCTYPE svg PUBLIC "-//W3C//DTD SVG 1.1//EN" "http://www.w3.org/Graphics/SVG/1.1/DTD/svg11.dtd">
<svg version="1.1" id="Layer_1" xmlns="http://www.w3.org/2000/svg" xmlns:xlink="http://www.w3.org/1999/xlink" x="0px" y="0px"
	 width="42px" height="40.667px" viewBox="30.5 33.723 42 40.667" enable-background="new 30.5 33.723 42 40.667"
	 xml:space="preserve">
<g id="Layer_1_1_">
</g>
<g id="Layer_2" display="none">
</g>
<g id="Layer_5" display="none">
</g>
<g id="Layer_6">
</g>
<g id="Layer_8" display="none">
</g>
<g id="Layer_7">
</g>
<g id="Layer_9">
</g>
<g id="Layer_10">
</g>
<g>
	<g>
		<polygon fill="#FFFFFF" points="59.996,57.35 59.996,37.206 43.75,37.206 39.751,40.956 39.751,57.35 33.966,57.35 33.966,68.177 
			65.78,68.177 65.78,57.35 		"/>
		<path fill="#FFFFFF" d="M65.78,69.081H33.966c-0.499,0-0.904-0.405-0.904-0.904V57.35c0-0.499,0.405-0.904,0.904-0.904h4.881
			v-15.49c0-0.25,0.103-0.489,0.286-0.659l4-3.749c0.168-0.157,0.389-0.244,0.618-0.244h16.246c0.499,0,0.904,0.405,0.904,0.904
			v19.239h4.881c0.499,0,0.904,0.405,0.904,0.904v10.827C66.684,68.676,66.279,69.081,65.78,69.081z M34.87,67.273h30.006v-9.02
			h-4.881c-0.499,0-0.904-0.405-0.904-0.904V38.11H44.108l-3.453,3.237V57.35c0,0.499-0.405,0.904-0.904,0.904H34.87V67.273z"/>
	</g>
	<g>
		<path d="M39.751,58.118c-0.499,0-0.904-0.405-0.904-0.904V40.956c0-0.25,0.103-0.489,0.286-0.659l4-3.749
			c0.167-0.157,0.388-0.244,0.618-0.244h16.245c0.499,0,0.904,0.405,0.904,0.904v19.583c0,0.499-0.405,0.904-0.904,0.904
			s-0.904-0.405-0.904-0.904V38.11H44.108l-3.453,3.237v15.867C40.654,57.714,40.25,58.118,39.751,58.118z"/>
	</g>
	<g>
		<path d="M65.78,69.081H33.966c-0.499,0-0.904-0.405-0.904-0.904V57.35c0-0.499,0.405-0.904,0.904-0.904h7.592
			c0.499,0,0.904,0.405,0.904,0.904v1.592h14.822V57.35c0-0.499,0.405-0.904,0.904-0.904h7.592c0.499,0,0.904,0.405,0.904,0.904
			v10.827C66.684,68.676,66.279,69.081,65.78,69.081z M34.87,67.273h30.006v-9.02h-5.784v1.592c0,0.499-0.405,0.904-0.904,0.904
			h-16.63c-0.499,0-0.904-0.405-0.904-0.904v-1.592H34.87V67.273z"/>
	</g>
</g>
</svg>
