<?xml version="1.0" encoding="utf-8"?>
<!-- Generator: Adobe Illustrator 17.0.0, SVG Export Plug-In . SVG Version: 6.00 Build 0)  -->
<!DOCTYPE svg PUBLIC "-//W3C//DTD SVG 1.1//EN" "http://www.w3.org/Graphics/SVG/1.1/DTD/svg11.dtd">
<svg version="1.1" id="Layer_1" xmlns="http://www.w3.org/2000/svg" xmlns:xlink="http://www.w3.org/1999/xlink" x="0px" y="0px"
	 width="47.333px" height="26px" viewBox="28 39.556 47.333 26" enable-background="new 28 39.556 47.333 26" xml:space="preserve">
<g id="Layer_1_1_">
</g>
<g id="Layer_2" display="none">
</g>
<g id="Layer_5" display="none">
</g>
<g id="Layer_6">
</g>
<g id="Layer_8" display="none">
</g>
<g id="Layer_7">
</g>
<g id="Layer_9">
</g>
<g id="Layer_10">
</g>
<path fill="#231F20" stroke="#231F20" stroke-width="0.75" stroke-linecap="round" stroke-linejoin="round" stroke-miterlimit="10" d="
	M73.607,42.258c0.009-0.016,0.016-0.032,0.024-0.048c0.01-0.022,0.019-0.044,0.027-0.066c0.006-0.018,0.011-0.036,0.016-0.054
	c0.006-0.023,0.01-0.045,0.013-0.069c0.003-0.018,0.005-0.036,0.006-0.054c0.002-0.024,0.001-0.047,0-0.071
	c-0.001-0.018-0.001-0.036-0.004-0.054c-0.003-0.023-0.008-0.045-0.013-0.068c-0.004-0.019-0.008-0.038-0.014-0.057
	c-0.002-0.006-0.002-0.012-0.004-0.018c-0.006-0.016-0.014-0.03-0.021-0.045c-0.008-0.018-0.015-0.036-0.025-0.054
	c-0.013-0.023-0.028-0.044-0.042-0.065c-0.009-0.013-0.018-0.027-0.028-0.04c-0.026-0.032-0.055-0.061-0.086-0.087
	c-0.001-0.001-0.002-0.003-0.004-0.004c0,0,0,0,0,0c-0.033-0.027-0.068-0.05-0.105-0.071c-0.016-0.009-0.034-0.015-0.051-0.023
	c-0.021-0.009-0.042-0.019-0.064-0.026c-0.02-0.006-0.04-0.011-0.06-0.015c-0.021-0.005-0.041-0.009-0.062-0.012
	c-0.021-0.003-0.041-0.004-0.062-0.004c-0.021-0.001-0.042-0.001-0.063,0c-0.022,0.001-0.043,0.004-0.064,0.007
	c-0.012,0.002-0.024,0.002-0.036,0.004l-43.041,8.909c-0.305,0.063-0.527,0.326-0.538,0.637c-0.011,0.311,0.191,0.589,0.491,0.674
	l9.293,2.634l1.435,9.231c0.003,0.022,0.009,0.043,0.015,0.064c0.002,0.009,0.004,0.018,0.006,0.028
	c0.012,0.039,0.028,0.077,0.046,0.112c0.001,0.003,0.002,0.006,0.004,0.009c0.006,0.012,0.014,0.022,0.021,0.033
	c0.008,0.013,0.015,0.026,0.024,0.038c0.011,0.016,0.024,0.031,0.036,0.046c0.008,0.009,0.015,0.019,0.023,0.028
	c0.016,0.017,0.033,0.032,0.05,0.047c0.007,0.006,0.013,0.012,0.02,0.018c0.023,0.018,0.047,0.035,0.072,0.05
	c0.002,0.001,0.004,0.003,0.006,0.004c0.028,0.016,0.056,0.031,0.086,0.043c0.007,0.003,0.014,0.005,0.021,0.007
	c0.023,0.009,0.047,0.017,0.071,0.023c0.002,0.001,0.005,0.002,0.007,0.002c0.014,0.003,0.028,0.005,0.042,0.008
	c0.011,0.002,0.023,0.005,0.034,0.006c0.023,0.003,0.046,0.004,0.07,0.005c0.005,0,0.01,0.001,0.015,0.001
	c0.046,0,0.092-0.006,0.138-0.015c0.006-0.001,0.012-0.002,0.018-0.003c0.013-0.003,0.027-0.008,0.04-0.012
	c0.013-0.004,0.025-0.007,0.038-0.012c0.01-0.004,0.021-0.009,0.031-0.013c0.015-0.006,0.03-0.013,0.044-0.02
	c0.002-0.001,0.005-0.002,0.007-0.003l8.655-4.599l4.779,4.495c0.126,0.118,0.291,0.183,0.463,0.183c0.014,0,0.028,0,0.042-0.001
	c0.186-0.012,0.36-0.1,0.478-0.244l17.617-21.32c0.007-0.009,0.012-0.019,0.019-0.028C73.578,42.304,73.594,42.282,73.607,42.258z
	 M39.874,52.935l-7.055-2l35.501-7.348L46.687,54.737c-0.01,0.005-0.019,0.014-0.029,0.02c-0.027,0.016-0.053,0.032-0.077,0.052
	c-0.015,0.012-0.03,0.025-0.044,0.038c-0.01,0.01-0.022,0.017-0.032,0.028c-0.011,0.012-0.019,0.026-0.029,0.038
	c-0.007,0.009-0.016,0.016-0.023,0.025l-4.843,6.597l-1.252-8.052C40.317,53.221,40.128,53.007,39.874,52.935z M43.487,61.26
	l3.603-4.908l2.033,1.912L43.487,61.26z M55.343,62.259L48.156,55.5l22.245-11.465L55.343,62.259z"/>
</svg>
