<?xml version="1.0" encoding="utf-8"?>
<!-- Generator: Adobe Illustrator 17.0.0, SVG Export Plug-In . SVG Version: 6.00 Build 0)  -->
<!DOCTYPE svg PUBLIC "-//W3C//DTD SVG 1.1//EN" "http://www.w3.org/Graphics/SVG/1.1/DTD/svg11.dtd">
<svg version="1.1" id="Layer_1" xmlns="http://www.w3.org/2000/svg" xmlns:xlink="http://www.w3.org/1999/xlink" x="0px" y="0px"
	 width="35.5px" height="45.333px" viewBox="41.333 25.89 35.5 45.333" enable-background="new 41.333 25.89 35.5 45.333"
	 xml:space="preserve">
<g id="Layer_1_1_">
</g>
<g id="Layer_2" display="none">
</g>
<g id="Layer_5" display="none">
</g>
<g id="Layer_6">
</g>
<g id="Layer_8" display="none">
</g>
<g id="Layer_7">
</g>
<g id="Layer_9">
</g>
<g id="Layer_10">
</g>
<g>
	<g>
		<g>
			<path fill="#FFFFFF" d="M72.863,67.388H45.137c-0.293,0-0.53-0.238-0.53-0.53V34.683c0-0.147,0.061-0.287,0.168-0.387
				l5.478-5.134c0.098-0.092,0.228-0.144,0.363-0.144h22.248c0.293,0,0.53,0.237,0.53,0.53v37.309
				C73.393,67.151,73.155,67.388,72.863,67.388z"/>
		</g>
		<g>
			<path d="M72.842,67.388H45.116c-0.293,0-0.53-0.238-0.53-0.53V34.683c0-0.147,0.061-0.287,0.168-0.387l5.478-5.134
				c0.098-0.092,0.228-0.144,0.363-0.144h22.248c0.293,0,0.53,0.237,0.53,0.53v37.309C73.372,67.151,73.135,67.388,72.842,67.388z
				 M45.647,66.327h26.664V30.079H50.804l-5.157,4.834V66.327z"/>
		</g>
		<g>
			<g>
				<path d="M73.623,32.826c-0.046,0-0.091-0.019-0.124-0.053l-3.422-3.596c-0.044-0.047-0.059-0.114-0.037-0.175
					s0.075-0.104,0.139-0.113l0.615-0.082l-0.03-0.834c-0.002-0.048,0.017-0.094,0.051-0.128c0.034-0.034,0.075-0.052,0.129-0.049
					l0.74,0.036l0.217-0.601c0.02-0.056,0.068-0.097,0.126-0.109c0.058-0.013,0.118,0.007,0.159,0.049l3.421,3.595
					c0.046,0.049,0.06,0.12,0.034,0.183c-0.025,0.063-0.085,0.104-0.153,0.106l-0.559,0.019l-0.19,0.719
					c-0.019,0.073-0.085,0.125-0.161,0.127l-0.632,0.017L73.79,32.69c-0.013,0.062-0.059,0.112-0.12,0.13
					C73.654,32.824,73.638,32.826,73.623,32.826z M70.557,29.185l2.965,3.115l0.117-0.563c0.016-0.078,0.084-0.134,0.163-0.136
					l0.639-0.018l0.19-0.718c0.019-0.073,0.084-0.125,0.16-0.127l0.306-0.011l-2.968-3.119l-0.166,0.459
					c-0.026,0.071-0.089,0.115-0.169,0.113l-0.68-0.033l0.029,0.804c0.003,0.088-0.061,0.164-0.149,0.176L70.557,29.185z"/>
			</g>
			<g>
				<path d="M71.929,69.327c-0.022,0-0.044-0.004-0.065-0.013c-0.062-0.025-0.104-0.085-0.106-0.153l-0.019-0.559l-0.719-0.19
					c-0.073-0.019-0.125-0.085-0.127-0.161l-0.017-0.632l-0.75-0.156c-0.063-0.013-0.112-0.059-0.13-0.121
					c-0.018-0.061,0-0.127,0.046-0.171l3.595-3.421c0.047-0.044,0.115-0.058,0.175-0.037c0.061,0.021,0.104,0.075,0.113,0.139
					l0.081,0.615l0.834-0.03c0.055,0,0.095,0.017,0.128,0.051c0.034,0.034,0.051,0.081,0.049,0.129l-0.035,0.74l0.601,0.217
					c0.056,0.02,0.097,0.068,0.109,0.126c0.012,0.058-0.006,0.118-0.049,0.159l-3.595,3.422
					C72.014,69.311,71.972,69.327,71.929,69.327z M71.231,68.114l0.718,0.19c0.073,0.019,0.125,0.084,0.127,0.16l0.01,0.306
					l3.119-2.968l-0.46-0.165c-0.071-0.026-0.116-0.094-0.113-0.169l0.033-0.681l-0.803,0.029c-0.103-0.002-0.164-0.061-0.176-0.149
					l-0.057-0.436l-3.115,2.964l0.563,0.117c0.078,0.016,0.134,0.084,0.136,0.163L71.231,68.114z"/>
			</g>
			<g>
				<path d="M45.897,69.118c-0.046,0-0.091-0.019-0.124-0.053l-3.421-3.595c-0.044-0.047-0.059-0.114-0.037-0.175
					c0.022-0.061,0.075-0.104,0.139-0.113l0.615-0.081l-0.03-0.834c-0.002-0.048,0.017-0.094,0.051-0.128
					c0.034-0.033,0.081-0.054,0.129-0.049l0.74,0.035l0.217-0.601c0.02-0.056,0.068-0.097,0.126-0.109
					c0.058-0.012,0.118,0.006,0.159,0.049l3.421,3.596c0.046,0.049,0.06,0.12,0.034,0.183c-0.026,0.063-0.085,0.104-0.153,0.106
					l-0.559,0.019l-0.19,0.719c-0.019,0.073-0.085,0.125-0.161,0.127l-0.632,0.018l-0.156,0.75c-0.013,0.063-0.059,0.112-0.121,0.13
					C45.929,69.116,45.913,69.118,45.897,69.118z M42.831,65.477l2.965,3.115l0.117-0.563c0.016-0.078,0.084-0.134,0.163-0.136
					l0.639-0.018l0.19-0.718c0.019-0.073,0.084-0.125,0.16-0.127l0.306-0.01L44.402,63.9l-0.166,0.46
					c-0.026,0.071-0.097,0.12-0.169,0.113l-0.681-0.033l0.029,0.804c0.003,0.088-0.061,0.164-0.148,0.176L42.831,65.477z"/>
			</g>
		</g>
	</g>
	<g opacity="0.2">
		<defs>
			<polygon id="SVGID_1_" opacity="0.2" points="52.44,33.656 69.789,33.656 69.789,62.751 48.169,62.751 48.169,37.66 			"/>
		</defs>
		<clipPath id="SVGID_2_">
			<use xlink:href="#SVGID_1_"  overflow="visible"/>
		</clipPath>
		<g clip-path="url(#SVGID_2_)">
			<g>
				<rect x="47.544" y="30.157" width="22.87" height="2.548"/>
			</g>
			<g>
				<rect x="47.544" y="34.35" width="22.87" height="2.548"/>
			</g>
			<g>
				<rect x="47.544" y="38.543" width="22.87" height="2.548"/>
			</g>
			<g>
				<rect x="47.544" y="42.736" width="22.87" height="2.548"/>
			</g>
			<g>
				<rect x="47.544" y="46.929" width="22.87" height="2.548"/>
			</g>
			<g>
				<rect x="47.544" y="51.122" width="22.87" height="2.548"/>
			</g>
			<g>
				<rect x="47.544" y="55.316" width="22.87" height="2.548"/>
			</g>
			<g>
				<rect x="47.544" y="59.509" width="22.87" height="2.548"/>
			</g>
			<g>
				<rect x="47.544" y="63.702" width="22.87" height="2.548"/>
			</g>
		</g>
	</g>
</g>
</svg>
