<?xml version="1.0" encoding="utf-8"?>
<!-- Generator: Adobe Illustrator 17.0.0, SVG Export Plug-In . SVG Version: 6.00 Build 0)  -->
<!DOCTYPE svg PUBLIC "-//W3C//DTD SVG 1.1//EN" "http://www.w3.org/Graphics/SVG/1.1/DTD/svg11.dtd">
<svg version="1.1" id="Layer_1" xmlns="http://www.w3.org/2000/svg" xmlns:xlink="http://www.w3.org/1999/xlink" x="0px" y="0px"
	 width="28.42px" height="27.076px" viewBox="0 0 28.42 27.076" enable-background="new 0 0 28.42 27.076" xml:space="preserve">
<g>
	<g>
		<path fill="#FFFFFF" d="M10.088,20.717c-4.648,0-8.429-3.782-8.429-8.43s3.781-8.43,8.429-8.43s8.43,3.782,8.43,8.43
			S14.736,20.717,10.088,20.717z M10.088,5.92c-3.51,0-6.365,2.856-6.365,6.366s2.855,6.365,6.365,6.365s6.366-2.855,6.366-6.365
			S13.598,5.92,10.088,5.92z"/>
	</g>
	<g>
		<line fill="#FFFFFF" x1="15.766" y1="17.791" x2="24.196" y2="24.157"/>
		<path fill="#FFFFFF" d="M24.194,25.704c-0.325,0-0.651-0.101-0.931-0.312l-8.429-6.365c-0.682-0.515-0.818-1.487-0.302-2.169
			c0.514-0.68,1.484-0.82,2.169-0.302l8.429,6.365c0.681,0.516,0.817,1.486,0.302,2.169C25.127,25.493,24.664,25.704,24.194,25.704z
			"/>
	</g>
	<g>
		<circle fill="#FFFFFF" cx="11.106" cy="9.802" r="7.398"/>
		<path d="M11.106,18.232c-4.648,0-8.429-3.782-8.429-8.43s3.781-8.43,8.429-8.43s8.43,3.782,8.43,8.43S15.754,18.232,11.106,18.232
			z M11.106,3.436c-3.51,0-6.365,2.856-6.365,6.366s2.855,6.365,6.365,6.365s6.366-2.855,6.366-6.365S14.616,3.436,11.106,3.436z"/>
	</g>
	<g>
		<g>
			<line fill="#FFFFFF" x1="8.009" y1="9.802" x2="14.203" y2="9.802"/>
			<path d="M14.202,10.834H8.009c-0.571,0-1.032-0.462-1.032-1.032c0-0.571,0.462-1.032,1.032-1.032h6.193
				c0.571,0,1.032,0.462,1.032,1.032C15.235,10.372,14.773,10.834,14.202,10.834z"/>
		</g>
		<g>
			<line fill="#FFFFFF" x1="11.106" y1="6.705" x2="11.106" y2="12.898"/>
			<path d="M11.106,13.931c-0.571,0-1.032-0.462-1.032-1.032V6.705c0-0.571,0.462-1.032,1.032-1.032
				c0.571,0,1.032,0.462,1.032,1.032v6.193C12.138,13.469,11.676,13.931,11.106,13.931z"/>
		</g>
	</g>
	<g>
		<line fill="#FFFFFF" x1="16.783" y1="15.307" x2="25.213" y2="21.672"/>
		<path d="M25.211,23.22c-0.325,0-0.651-0.101-0.931-0.312l-8.429-6.365c-0.682-0.515-0.818-1.487-0.302-2.169
			c0.514-0.68,1.484-0.82,2.169-0.302l8.429,6.365c0.681,0.516,0.817,1.486,0.302,2.169C26.145,23.008,25.681,23.22,25.211,23.22z"
			/>
	</g>
</g>
</svg>
